%TF.GenerationSoftware,KiCad,Pcbnew,10.0.4*%
%TF.CreationDate,2026-07-26T22:27:12-04:00*%
%TF.ProjectId,DC,44432e6b-6963-4616-945f-706362585858,rev?*%
%TF.SameCoordinates,Original*%
%TF.FileFunction,Soldermask,Bot*%
%TF.FilePolarity,Negative*%
%FSLAX46Y46*%
G04 Gerber Fmt 4.6, Leading zero omitted, Abs format (unit mm)*
G04 Created by KiCad (PCBNEW 10.0.4) date 2026-07-26 22:27:12*
%MOMM*%
%LPD*%
G01*
G04 APERTURE LIST*
G04 Aperture macros list*
%AMRoundRect*
0 Rectangle with rounded corners*
0 $1 Rounding radius*
0 $2 $3 $4 $5 $6 $7 $8 $9 X,Y pos of 4 corners*
0 Add a 4 corners polygon primitive as box body*
4,1,4,$2,$3,$4,$5,$6,$7,$8,$9,$2,$3,0*
0 Add four circle primitives for the rounded corners*
1,1,$1+$1,$2,$3*
1,1,$1+$1,$4,$5*
1,1,$1+$1,$6,$7*
1,1,$1+$1,$8,$9*
0 Add four rect primitives between the rounded corners*
20,1,$1+$1,$2,$3,$4,$5,0*
20,1,$1+$1,$4,$5,$6,$7,0*
20,1,$1+$1,$6,$7,$8,$9,0*
20,1,$1+$1,$8,$9,$2,$3,0*%
G04 Aperture macros list end*
%ADD10C,1.300000*%
%ADD11R,1.700000X1.700000*%
%ADD12C,1.700000*%
%ADD13C,1.600000*%
%ADD14R,8.000000X2.000000*%
%ADD15C,1.270000*%
%ADD16C,2.260600*%
%ADD17R,2.775000X2.775000*%
%ADD18C,2.775000*%
%ADD19C,4.500000*%
%ADD20O,3.040000X1.770000*%
%ADD21R,1.498600X1.498600*%
%ADD22C,1.498600*%
%ADD23C,1.574800*%
%ADD24C,3.200000*%
%ADD25RoundRect,0.102000X-0.762000X0.762000X-0.762000X-0.762000X0.762000X-0.762000X0.762000X0.762000X0*%
%ADD26C,1.728000*%
%ADD27C,2.100000*%
%ADD28C,3.000000*%
%ADD29R,0.855600X1.600000*%
%ADD30C,4.038600*%
%ADD31C,2.057400*%
%ADD32C,1.905000*%
G04 APERTURE END LIST*
D10*
%TO.C,S3*%
X95350000Y-143160000D03*
X95350000Y-130460000D03*
X82650000Y-143160000D03*
X82650000Y-130460000D03*
D11*
X93500000Y-133000000D03*
D12*
X93500000Y-140620000D03*
D13*
X89000000Y-134270000D03*
X89000000Y-139350000D03*
X89000000Y-136810000D03*
%TD*%
D10*
%TO.C,S2*%
X147350000Y-143160000D03*
X147350000Y-130460000D03*
X134650000Y-143160000D03*
X134650000Y-130460000D03*
D11*
X145500000Y-133000000D03*
D12*
X145500000Y-140620000D03*
D13*
X141000000Y-134270000D03*
X141000000Y-139350000D03*
X141000000Y-136810000D03*
%TD*%
D14*
%TO.C,U3*%
X84000000Y-160315000D03*
X84000000Y-183685000D03*
%TD*%
%TO.C,U4*%
X103000000Y-160315000D03*
X103000000Y-183685000D03*
%TD*%
D15*
%TO.C,DS1*%
X122332704Y-95149996D03*
X120332705Y-95149996D03*
X118332704Y-95149996D03*
X116332705Y-95149996D03*
X114332704Y-95149996D03*
X112332706Y-95149996D03*
X110332705Y-95149996D03*
X108332704Y-95149996D03*
D16*
X76832705Y-83499996D03*
X76782692Y-74999995D03*
%TD*%
D17*
%TO.C,S5*%
X141000000Y-117200000D03*
D18*
X141000000Y-112500000D03*
X141000000Y-107800000D03*
X139410000Y-120375000D03*
X142590000Y-120375000D03*
X139410000Y-104625000D03*
X142590000Y-104625000D03*
%TD*%
D19*
%TO.C,REF\u002A\u002A*%
X264000000Y-64000000D03*
%TD*%
D20*
%TO.C,U2*%
X116830001Y-107799999D03*
X116830002Y-112500000D03*
X116830002Y-117200000D03*
X112000000Y-107799999D03*
X112000000Y-112500000D03*
X112000000Y-117200000D03*
%TD*%
D21*
%TO.C,U1*%
X249810000Y-168190000D03*
D22*
X247270000Y-168190000D03*
X244730000Y-168190000D03*
X242190000Y-168190000D03*
X242190000Y-175810000D03*
X244730000Y-175810000D03*
X247270000Y-175810000D03*
X249810000Y-175810000D03*
%TD*%
D23*
%TO.C,J4*%
X250500000Y-181000000D03*
X247960000Y-181000000D03*
%TD*%
D19*
%TO.C,REF\u002A\u002A*%
X75500000Y-193000000D03*
%TD*%
D24*
%TO.C,U5*%
X231000000Y-84000000D03*
X178930000Y-117020000D03*
X229730000Y-132260000D03*
D25*
X227190000Y-76380000D03*
D26*
X227190000Y-78920000D03*
X224650000Y-76380000D03*
X224650000Y-78920000D03*
X222110000Y-76380000D03*
X222110000Y-78920000D03*
X219570000Y-76380000D03*
X219570000Y-78920000D03*
X217030000Y-76380000D03*
X217030000Y-78920000D03*
X214490000Y-76380000D03*
X214490000Y-78920000D03*
X211950000Y-76380000D03*
X211950000Y-78920000D03*
X209410000Y-76380000D03*
X209410000Y-78920000D03*
X206870000Y-76380000D03*
X206870000Y-78920000D03*
X204330000Y-76380000D03*
X204330000Y-78920000D03*
X201790000Y-76380000D03*
X201790000Y-78920000D03*
X199250000Y-76380000D03*
X199250000Y-78920000D03*
X196710000Y-76380000D03*
X196710000Y-78920000D03*
X194170000Y-76380000D03*
X194170000Y-78920000D03*
X191630000Y-76380000D03*
X191630000Y-78920000D03*
X189090000Y-76380000D03*
X189090000Y-78920000D03*
X186550000Y-76380000D03*
X186550000Y-78920000D03*
X184010000Y-76380000D03*
X184010000Y-78920000D03*
X181470000Y-76380000D03*
X181470000Y-78920000D03*
X227190000Y-137340000D03*
X227190000Y-139880000D03*
X224650000Y-137340000D03*
X224650000Y-139880000D03*
X222110000Y-137340000D03*
X222110000Y-139880000D03*
X219570000Y-137340000D03*
X219570000Y-139880000D03*
X217030000Y-137340000D03*
X217030000Y-139880000D03*
X214490000Y-137340000D03*
X214490000Y-139880000D03*
X211950000Y-137340000D03*
X211950000Y-139880000D03*
X209410000Y-137340000D03*
X209410000Y-139880000D03*
X206870000Y-137340000D03*
X206870000Y-139880000D03*
X204330000Y-137340000D03*
X204330000Y-139880000D03*
X201790000Y-137340000D03*
X201790000Y-139880000D03*
X199250000Y-137340000D03*
X199250000Y-139880000D03*
X196710000Y-137340000D03*
X196710000Y-139880000D03*
X194170000Y-137340000D03*
X194170000Y-139880000D03*
X191630000Y-137340000D03*
X191630000Y-139880000D03*
X189090000Y-137340000D03*
X189090000Y-139880000D03*
X186550000Y-137340000D03*
X186550000Y-139880000D03*
X184010000Y-137340000D03*
X184010000Y-139880000D03*
X181470000Y-137340000D03*
X181470000Y-139880000D03*
%TD*%
D27*
%TO.C,S4*%
X135000000Y-169000000D03*
X135700000Y-174000000D03*
X146300000Y-169000000D03*
X147000000Y-174000000D03*
X142270000Y-169000000D03*
X139730000Y-169000000D03*
X141000000Y-174000000D03*
D28*
X134750000Y-165960000D03*
X134750000Y-176960000D03*
X147250000Y-176960000D03*
X147250000Y-165960000D03*
%TD*%
D19*
%TO.C,REF\u002A\u002A*%
X264000000Y-193000000D03*
%TD*%
D10*
%TO.C,S1*%
X122000000Y-143200000D03*
X122000000Y-130500000D03*
X109300000Y-143200000D03*
X109300000Y-130500000D03*
D11*
X120150000Y-133040000D03*
D12*
X120150000Y-140660000D03*
D13*
X115650000Y-134310000D03*
X115650000Y-139390000D03*
X115650000Y-136850000D03*
%TD*%
D19*
%TO.C,REF\u002A\u002A*%
X75500000Y-64000000D03*
%TD*%
D29*
%TO.C,C8*%
X113444398Y-92500000D03*
X116500000Y-92500000D03*
%TD*%
D30*
%TO.C,J2*%
X219000000Y-191500000D03*
X173499989Y-191500000D03*
D31*
X211999999Y-189039999D03*
X208499998Y-189039999D03*
X204999997Y-189039999D03*
X201499994Y-189039999D03*
X197999994Y-189039999D03*
X194499993Y-189039999D03*
X190999992Y-189039999D03*
X187499992Y-189039999D03*
X183999991Y-189039999D03*
X180499990Y-189039999D03*
X211999999Y-192540001D03*
X208499998Y-192540001D03*
X204999997Y-192540001D03*
X201499994Y-192540001D03*
X197999994Y-192540001D03*
X194499993Y-192540001D03*
X190999992Y-192540001D03*
X187499992Y-192540001D03*
X183999991Y-192540001D03*
X180499990Y-192540001D03*
%TD*%
D32*
%TO.C,J3*%
X251573954Y-192000000D03*
X248073953Y-192000000D03*
X244573953Y-192000000D03*
X241073952Y-192000000D03*
%TD*%
D30*
%TO.C,J1*%
X139000001Y-191500000D03*
X93499990Y-191500000D03*
D31*
X132000000Y-189039999D03*
X128499999Y-189039999D03*
X124999998Y-189039999D03*
X121499995Y-189039999D03*
X117999995Y-189039999D03*
X114499994Y-189039999D03*
X110999993Y-189039999D03*
X107499993Y-189039999D03*
X103999992Y-189039999D03*
X100499991Y-189039999D03*
X132000000Y-192540001D03*
X128499999Y-192540001D03*
X124999998Y-192540001D03*
X121499995Y-192540001D03*
X117999995Y-192540001D03*
X114499994Y-192540001D03*
X110999993Y-192540001D03*
X107499993Y-192540001D03*
X103999992Y-192540001D03*
X100499991Y-192540001D03*
%TD*%
M02*
