%TF.GenerationSoftware,KiCad,Pcbnew,10.0.4*%
%TF.CreationDate,2026-07-23T00:19:59-04:00*%
%TF.ProjectId,DC,44432e6b-6963-4616-945f-706362585858,rev?*%
%TF.SameCoordinates,Original*%
%TF.FileFunction,Copper,L4,Bot*%
%TF.FilePolarity,Positive*%
%FSLAX46Y46*%
G04 Gerber Fmt 4.6, Leading zero omitted, Abs format (unit mm)*
G04 Created by KiCad (PCBNEW 10.0.4) date 2026-07-23 00:19:59*
%MOMM*%
%LPD*%
G01*
G04 APERTURE LIST*
%TA.AperFunction,ComponentPad*%
%ADD10R,8.000000X2.000000*%
%TD*%
%TA.AperFunction,ComponentPad*%
%ADD11R,1.700000X1.700000*%
%TD*%
%TA.AperFunction,ComponentPad*%
%ADD12C,1.700000*%
%TD*%
%TA.AperFunction,ComponentPad*%
%ADD13C,1.600000*%
%TD*%
%TA.AperFunction,ComponentPad*%
%ADD14O,3.040000X1.770000*%
%TD*%
%TA.AperFunction,ComponentPad*%
%ADD15C,1.270000*%
%TD*%
%TA.AperFunction,ComponentPad*%
%ADD16C,2.260600*%
%TD*%
%TA.AperFunction,ComponentPad*%
%ADD17R,2.775000X2.775000*%
%TD*%
%TA.AperFunction,ComponentPad*%
%ADD18C,2.775000*%
%TD*%
%TA.AperFunction,ComponentPad*%
%ADD19R,1.498600X1.498600*%
%TD*%
%TA.AperFunction,ComponentPad*%
%ADD20C,1.498600*%
%TD*%
%TA.AperFunction,ComponentPad*%
%ADD21C,1.574800*%
%TD*%
%TA.AperFunction,ComponentPad*%
%ADD22R,1.524000X1.524000*%
%TD*%
%TA.AperFunction,ComponentPad*%
%ADD23C,1.524000*%
%TD*%
%TA.AperFunction,ComponentPad*%
%ADD24C,2.100000*%
%TD*%
%TA.AperFunction,ComponentPad*%
%ADD25C,3.000000*%
%TD*%
%TA.AperFunction,SMDPad,CuDef*%
%ADD26R,0.855600X1.600000*%
%TD*%
%TA.AperFunction,ComponentPad*%
%ADD27C,2.057400*%
%TD*%
%TA.AperFunction,ComponentPad*%
%ADD28C,1.905000*%
%TD*%
%TA.AperFunction,ViaPad*%
%ADD29C,0.600000*%
%TD*%
%TA.AperFunction,ViaPad*%
%ADD30C,1.270000*%
%TD*%
%TA.AperFunction,Conductor*%
%ADD31C,0.500000*%
%TD*%
%TA.AperFunction,Conductor*%
%ADD32C,0.300000*%
%TD*%
G04 APERTURE END LIST*
D10*
%TO.P,U4,2,2*%
%TO.N,/HVSwitch-*%
X103000000Y-183685000D03*
%TO.P,U4,1,1*%
%TO.N,/HVSwitch+*%
X103000000Y-160315000D03*
%TD*%
%TO.P,U3,1,1*%
%TO.N,/LVSwitch+*%
X84000000Y-160315000D03*
%TO.P,U3,2,2*%
%TO.N,/LVSwitch-*%
X84000000Y-183685000D03*
%TD*%
D11*
%TO.P,S2,1,1*%
%TO.N,/RSignalLightIn*%
X145500000Y-133000000D03*
D12*
%TO.P,S2,2,2*%
%TO.N,GND*%
X145500000Y-140620000D03*
D13*
%TO.P,S2,L1,K_YELLOW*%
%TO.N,unconnected-(S2-K_YELLOW-PadL1)*%
X141000000Y-134270000D03*
%TO.P,S2,L2,K_GREEN*%
%TO.N,unconnected-(S2-K_GREEN-PadL2)*%
X141000000Y-139350000D03*
%TO.P,S2,LC1,COM_A*%
%TO.N,unconnected-(S2-COM_A-PadLC1)*%
X141000000Y-136810000D03*
%TD*%
D11*
%TO.P,S1,1,1*%
%TO.N,/HazardIn*%
X120150000Y-133040000D03*
D12*
%TO.P,S1,2,2*%
%TO.N,GND*%
X120150000Y-140660000D03*
D13*
%TO.P,S1,L1,K_YELLOW*%
%TO.N,unconnected-(S1-K_YELLOW-PadL1)*%
X115650000Y-134310000D03*
%TO.P,S1,L2,K_GREEN*%
%TO.N,unconnected-(S1-K_GREEN-PadL2)*%
X115650000Y-139390000D03*
%TO.P,S1,LC1,COM_A*%
%TO.N,unconnected-(S1-COM_A-PadLC1)*%
X115650000Y-136850000D03*
%TD*%
D11*
%TO.P,S3,1,1*%
%TO.N,/LSignalLightIn*%
X93500000Y-133000000D03*
D12*
%TO.P,S3,2,2*%
%TO.N,GND*%
X93500000Y-140620000D03*
D13*
%TO.P,S3,L1,K_YELLOW*%
%TO.N,unconnected-(S3-K_YELLOW-PadL1)*%
X89000000Y-134270000D03*
%TO.P,S3,L2,K_GREEN*%
%TO.N,unconnected-(S3-K_GREEN-PadL2)*%
X89000000Y-139350000D03*
%TO.P,S3,LC1,COM_A*%
%TO.N,unconnected-(S3-COM_A-PadLC1)*%
X89000000Y-136810000D03*
%TD*%
D14*
%TO.P,U2,1,OUT*%
%TO.N,/Drive*%
X116830001Y-107799999D03*
%TO.P,U2,2,IN*%
%TO.N,GND*%
X116830002Y-112500000D03*
%TO.P,U2,3,3*%
%TO.N,Net-(U2-Pad3)*%
X116830002Y-117200000D03*
%TO.P,U2,4,OUT*%
%TO.N,/Neutral*%
X112000000Y-107799999D03*
%TO.P,U2,5,5*%
%TO.N,Net-(U2-Pad3)*%
X112000000Y-112500000D03*
%TO.P,U2,6,OUT*%
%TO.N,/Reverse*%
X112000000Y-117200000D03*
%TD*%
D15*
%TO.P,DS1,1,ST*%
%TO.N,Net-(DS1-ST)*%
X122332704Y-95149996D03*
%TO.P,DS1,2,SCL*%
%TO.N,/I2C1_SCL*%
X120332705Y-95149996D03*
%TO.P,DS1,3,SDA*%
%TO.N,/I2C1_SDA*%
X118332704Y-95149996D03*
%TO.P,DS1,4,VSS*%
%TO.N,GND*%
X116332705Y-95149996D03*
%TO.P,DS1,5,VDD*%
%TO.N,+3.3V*%
X114332704Y-95149996D03*
%TO.P,DS1,6,VOUT*%
%TO.N,Net-(DS1-VOUT)*%
X112332706Y-95149996D03*
%TO.P,DS1,7,C1+*%
%TO.N,Net-(DS1-C1+)*%
X110332705Y-95149996D03*
%TO.P,DS1,8,C1-*%
%TO.N,Net-(DS1-C1-)*%
X108332704Y-95149996D03*
D16*
%TO.P,DS1,9,ANODE*%
%TO.N,+3.3V*%
X76832705Y-83499996D03*
%TO.P,DS1,10,CATHODE*%
%TO.N,GND*%
X76782692Y-74999995D03*
%TD*%
D17*
%TO.P,S5,1,NC*%
%TO.N,/ChargeMode*%
X141000000Y-117200000D03*
D18*
%TO.P,S5,2,COM*%
%TO.N,/To_ModeSelect*%
X141000000Y-112500000D03*
%TO.P,S5,3,NO*%
%TO.N,/ReadyMode*%
X141000000Y-107800000D03*
%TO.P,S5,4,MH1*%
%TO.N,GND*%
X139410000Y-120375000D03*
%TO.P,S5,5,MH2*%
X142590000Y-120375000D03*
%TO.P,S5,6,MH3*%
X139410000Y-104625000D03*
%TO.P,S5,7,MH4*%
X142590000Y-104625000D03*
%TD*%
D19*
%TO.P,U1,1,TXD*%
%TO.N,/CAN_TX*%
X249810000Y-168190000D03*
D20*
%TO.P,U1,2,VSS*%
%TO.N,GND*%
X247270000Y-168190000D03*
%TO.P,U1,3,VDD*%
%TO.N,/CANTransceiver5V*%
X244730000Y-168190000D03*
%TO.P,U1,4,RXD*%
%TO.N,/CAN_RX*%
X242190000Y-168190000D03*
%TO.P,U1,5,VREF*%
%TO.N,unconnected-(U1-VREF-Pad5)*%
X242190000Y-175810000D03*
%TO.P,U1,6,CANL*%
%TO.N,/CAN_L*%
X244730000Y-175810000D03*
%TO.P,U1,7,CANH*%
%TO.N,/CAN_H*%
X247270000Y-175810000D03*
%TO.P,U1,8,RS*%
%TO.N,Net-(U1-RS)*%
X249810000Y-175810000D03*
%TD*%
D21*
%TO.P,J4,1,1*%
%TO.N,/CAN_H*%
X250500000Y-181000000D03*
%TO.P,J4,2,2*%
%TO.N,Net-(J4-Pad2)*%
X247960000Y-181000000D03*
%TD*%
D22*
%TO.P,U5,CN7_1,PC10*%
%TO.N,unconnected-(U5A-PC10-PadCN7_1)*%
X227190000Y-76380000D03*
D23*
%TO.P,U5,CN7_2,PC11*%
%TO.N,unconnected-(U5A-PC11-PadCN7_2)*%
X227190000Y-78920000D03*
%TO.P,U5,CN7_3,PC12*%
%TO.N,unconnected-(U5A-PC12-PadCN7_3)*%
X224650000Y-76380000D03*
%TO.P,U5,CN7_4,PD2*%
%TO.N,unconnected-(U5A-PD2-PadCN7_4)*%
X224650000Y-78920000D03*
%TO.P,U5,CN7_5,VDD*%
%TO.N,unconnected-(U5A-VDD-PadCN7_5)*%
X222110000Y-76380000D03*
%TO.P,U5,CN7_6,E5V*%
%TO.N,unconnected-(U5A-E5V-PadCN7_6)*%
X222110000Y-78920000D03*
%TO.P,U5,CN7_7,BOOT0*%
%TO.N,unconnected-(U5A-BOOT0-PadCN7_7)*%
X219570000Y-76380000D03*
%TO.P,U5,CN7_8,GND_CN7_8*%
%TO.N,GND*%
X219570000Y-78920000D03*
%TO.P,U5,CN7_9,NC_CN7_9*%
%TO.N,unconnected-(U5A-NC_CN7_9-PadCN7_9)*%
X217030000Y-76380000D03*
%TO.P,U5,CN7_10,NC_CN7_10*%
%TO.N,unconnected-(U5A-NC_CN7_10-PadCN7_10)*%
X217030000Y-78920000D03*
%TO.P,U5,CN7_11,NC_CN7_11*%
%TO.N,unconnected-(U5A-NC_CN7_11-PadCN7_11)*%
X214490000Y-76380000D03*
%TO.P,U5,CN7_12,IOREF*%
%TO.N,unconnected-(U5A-IOREF-PadCN7_12)*%
X214490000Y-78920000D03*
%TO.P,U5,CN7_13,PA13*%
%TO.N,unconnected-(U5A-PA13-PadCN7_13)*%
X211950000Y-76380000D03*
%TO.P,U5,CN7_14,~{RESET}*%
%TO.N,unconnected-(U5A-~{RESET}-PadCN7_14)*%
X211950000Y-78920000D03*
%TO.P,U5,CN7_15,PA14*%
%TO.N,unconnected-(U5A-PA14-PadCN7_15)*%
X209410000Y-76380000D03*
%TO.P,U5,CN7_16,+3V3*%
%TO.N,+3.3V*%
X209410000Y-78920000D03*
%TO.P,U5,CN7_17,PA15*%
%TO.N,unconnected-(U5A-PA15-PadCN7_17)*%
X206870000Y-76380000D03*
%TO.P,U5,CN7_18,+5V*%
%TO.N,/CANTransceiver5V*%
X206870000Y-78920000D03*
%TO.P,U5,CN7_19,GND_CN7_19*%
%TO.N,GND*%
X204330000Y-76380000D03*
%TO.P,U5,CN7_20,GND_CN7_20*%
X204330000Y-78920000D03*
%TO.P,U5,CN7_21,PB7*%
%TO.N,unconnected-(U5A-PB7-PadCN7_21)*%
X201790000Y-76380000D03*
%TO.P,U5,CN7_22,GND_CN7_22*%
%TO.N,GND*%
X201790000Y-78920000D03*
%TO.P,U5,CN7_23,PC13*%
%TO.N,unconnected-(U5A-PC13-PadCN7_23)*%
X199250000Y-76380000D03*
%TO.P,U5,CN7_24,VIN*%
%TO.N,Net-(U5A-VIN)*%
X199250000Y-78920000D03*
%TO.P,U5,CN7_25,PC14*%
%TO.N,unconnected-(U5A-PC14-PadCN7_25)*%
X196710000Y-76380000D03*
%TO.P,U5,CN7_26,NC_CN7_26*%
%TO.N,unconnected-(U5A-NC_CN7_26-PadCN7_26)*%
X196710000Y-78920000D03*
%TO.P,U5,CN7_27,PC15*%
%TO.N,unconnected-(U5A-PC15-PadCN7_27)*%
X194170000Y-76380000D03*
%TO.P,U5,CN7_28,PA0*%
%TO.N,/AccelIn*%
X194170000Y-78920000D03*
%TO.P,U5,CN7_29,PF0*%
%TO.N,unconnected-(U5A-PF0-PadCN7_29)*%
X191630000Y-76380000D03*
%TO.P,U5,CN7_30,PA1*%
%TO.N,unconnected-(U5A-PA1-PadCN7_30)*%
X191630000Y-78920000D03*
%TO.P,U5,CN7_31,PF1*%
%TO.N,unconnected-(U5A-PF1-PadCN7_31)*%
X189090000Y-76380000D03*
%TO.P,U5,CN7_32,PA4*%
%TO.N,unconnected-(U5A-PA4-PadCN7_32)*%
X189090000Y-78920000D03*
%TO.P,U5,CN7_33,VBAT*%
%TO.N,unconnected-(U5A-VBAT-PadCN7_33)*%
X186550000Y-76380000D03*
%TO.P,U5,CN7_34,PB0*%
%TO.N,unconnected-(U5A-PB0-PadCN7_34)*%
X186550000Y-78920000D03*
%TO.P,U5,CN7_35,PC2*%
%TO.N,unconnected-(U5A-PC2-PadCN7_35)*%
X184010000Y-76380000D03*
%TO.P,U5,CN7_36,PC1*%
%TO.N,unconnected-(U5A-PC1-PadCN7_36)*%
X184010000Y-78920000D03*
%TO.P,U5,CN7_37,PC3*%
%TO.N,unconnected-(U5A-PC3-PadCN7_37)*%
X181470000Y-76380000D03*
%TO.P,U5,CN7_38,PC0*%
%TO.N,unconnected-(U5A-PC0-PadCN7_38)*%
X181470000Y-78920000D03*
%TO.P,U5,CN10_1,PC9*%
%TO.N,unconnected-(U5B-PC9-PadCN10_1)*%
X227190000Y-137340000D03*
%TO.P,U5,CN10_2,PC8*%
%TO.N,unconnected-(U5B-PC8-PadCN10_2)*%
X227190000Y-139880000D03*
%TO.P,U5,CN10_3,PB8*%
%TO.N,/I2C1_SCL*%
X224650000Y-137340000D03*
%TO.P,U5,CN10_4,PC6*%
%TO.N,unconnected-(U5B-PC6-PadCN10_4)*%
X224650000Y-139880000D03*
%TO.P,U5,CN10_5,PB9*%
%TO.N,/I2C1_SDA*%
X222110000Y-137340000D03*
%TO.P,U5,CN10_6,PC5*%
%TO.N,unconnected-(U5B-PC5-PadCN10_6)*%
X222110000Y-139880000D03*
%TO.P,U5,CN10_7,AVDD*%
%TO.N,unconnected-(U5B-AVDD-PadCN10_7)*%
X219570000Y-137340000D03*
%TO.P,U5,CN10_8,U5V*%
%TO.N,unconnected-(U5B-U5V-PadCN10_8)*%
X219570000Y-139880000D03*
%TO.P,U5,CN10_9,GND_CN10_9*%
%TO.N,GND*%
X217030000Y-137340000D03*
%TO.P,U5,CN10_10,NC_CN10_10*%
%TO.N,unconnected-(U5B-NC_CN10_10-PadCN10_10)*%
X217030000Y-139880000D03*
%TO.P,U5,CN10_11,PB13*%
%TO.N,unconnected-(U5B-PB13-PadCN10_11)*%
X214490000Y-137340000D03*
%TO.P,U5,CN10_12,PA12*%
%TO.N,/CAN_TX*%
X214490000Y-139880000D03*
%TO.P,U5,CN10_13,PB14*%
%TO.N,unconnected-(U5B-PB14-PadCN10_13)*%
X211950000Y-137340000D03*
%TO.P,U5,CN10_14,PA11*%
%TO.N,/CAN_RX*%
X211950000Y-139880000D03*
%TO.P,U5,CN10_15,PB15*%
%TO.N,unconnected-(U5B-PB15-PadCN10_15)*%
X209410000Y-137340000D03*
%TO.P,U5,CN10_16,PB12*%
%TO.N,/DRLLeftOut*%
X209410000Y-139880000D03*
%TO.P,U5,CN10_17,PB6*%
%TO.N,unconnected-(U5B-PB6-PadCN10_17)*%
X206870000Y-137340000D03*
%TO.P,U5,CN10_18,PB11*%
%TO.N,/DRLRightOut*%
X206870000Y-139880000D03*
%TO.P,U5,CN10_19,PC7*%
%TO.N,unconnected-(U5B-PC7-PadCN10_19)*%
X204330000Y-137340000D03*
%TO.P,U5,CN10_20,GND_CN10_20*%
%TO.N,GND*%
X204330000Y-139880000D03*
%TO.P,U5,CN10_21,PA9*%
%TO.N,unconnected-(U5B-PA9-PadCN10_21)*%
X201790000Y-137340000D03*
%TO.P,U5,CN10_22,PB2*%
%TO.N,/LSignalLightOut*%
X201790000Y-139880000D03*
%TO.P,U5,CN10_23,PA8*%
%TO.N,unconnected-(U5B-PA8-PadCN10_23)*%
X199250000Y-137340000D03*
%TO.P,U5,CN10_24,PB1*%
%TO.N,/RSignalLightOut*%
X199250000Y-139880000D03*
%TO.P,U5,CN10_25,PB10*%
%TO.N,unconnected-(U5B-PB10-PadCN10_25)*%
X196710000Y-137340000D03*
%TO.P,U5,CN10_26,PA7*%
%TO.N,/ThermalShutoff*%
X196710000Y-139880000D03*
%TO.P,U5,CN10_27,PB4*%
%TO.N,/Drive*%
X194170000Y-137340000D03*
%TO.P,U5,CN10_28,PA6*%
%TO.N,Net-(U5B-PA6)*%
X194170000Y-139880000D03*
%TO.P,U5,CN10_29,PB5*%
%TO.N,/Neutral*%
X191630000Y-137340000D03*
%TO.P,U5,CN10_30,PA5*%
%TO.N,/BrakeLightOut*%
X191630000Y-139880000D03*
%TO.P,U5,CN10_31,PB3*%
%TO.N,/Reverse*%
X189090000Y-137340000D03*
%TO.P,U5,CN10_32,AGND*%
%TO.N,unconnected-(U5B-AGND-PadCN10_32)*%
X189090000Y-139880000D03*
%TO.P,U5,CN10_33,PA10*%
%TO.N,/LSignalLightIn*%
X186550000Y-137340000D03*
%TO.P,U5,CN10_34,PC4*%
%TO.N,unconnected-(U5B-PC4-PadCN10_34)*%
X186550000Y-139880000D03*
%TO.P,U5,CN10_35,PA2*%
%TO.N,/HazardIn*%
X184010000Y-137340000D03*
%TO.P,U5,CN10_36,NC_CN10_36*%
%TO.N,unconnected-(U5B-NC_CN10_36-PadCN10_36)*%
X184010000Y-139880000D03*
%TO.P,U5,CN10_37,PA3*%
%TO.N,/RSignalLightIn*%
X181470000Y-137340000D03*
%TO.P,U5,CN10_38,NC_CN10_38*%
%TO.N,unconnected-(U5B-NC_CN10_38-PadCN10_38)*%
X181470000Y-139880000D03*
%TD*%
D24*
%TO.P,S4,1,1*%
%TO.N,/From_PreChargeBtn*%
X135000000Y-169000000D03*
%TO.P,S4,2,2*%
%TO.N,/Enable*%
X135700000Y-174000000D03*
%TO.P,S4,3,3*%
%TO.N,unconnected-(S4-Pad3)*%
X146300000Y-169000000D03*
%TO.P,S4,4,4*%
%TO.N,unconnected-(S4-Pad4)*%
X147000000Y-174000000D03*
%TO.P,S4,L1,L1*%
%TO.N,unconnected-(S4-PadL1)*%
X142270000Y-169000000D03*
%TO.P,S4,L2,L2*%
%TO.N,unconnected-(S4-PadL2)*%
X139730000Y-169000000D03*
%TO.P,S4,LC1,LC1*%
%TO.N,unconnected-(S4-PadLC1)*%
X141000000Y-174000000D03*
D25*
%TO.P,S4,MH1,MH1*%
%TO.N,GND*%
X134750000Y-165960000D03*
%TO.P,S4,MH2,MH2*%
X134750000Y-176960000D03*
%TO.P,S4,MH3,MH3*%
X147250000Y-176960000D03*
%TO.P,S4,MH4,MH4*%
X147250000Y-165960000D03*
%TD*%
D26*
%TO.P,C8,1*%
%TO.N,+3.3V*%
X113444398Y-92500000D03*
%TO.P,C8,2*%
%TO.N,GND*%
X116500000Y-92500000D03*
%TD*%
D27*
%TO.P,J2,1,1*%
%TO.N,/LSignalLightNeg*%
X211999999Y-189039999D03*
%TO.P,J2,2,2*%
X208499998Y-189039999D03*
%TO.P,J2,3,3*%
X204999997Y-189039999D03*
%TO.P,J2,4,4*%
%TO.N,/RSignalLightNeg*%
X201499994Y-189039999D03*
%TO.P,J2,5,5*%
X197999994Y-189039999D03*
%TO.P,J2,6,6*%
%TO.N,/ThermalShutoff*%
X194499993Y-189039999D03*
%TO.P,J2,7,7*%
%TO.N,/BrakePedalIn*%
X190999992Y-189039999D03*
%TO.P,J2,8,8*%
%TO.N,/AccelIn*%
X187499992Y-189039999D03*
%TO.P,J2,9,9*%
%TO.N,/GreenLED1*%
X183999991Y-189039999D03*
%TO.P,J2,10,10*%
%TO.N,/GreenLED2*%
X180499990Y-189039999D03*
%TO.P,J2,11,11*%
%TO.N,/DRLLeftNeg*%
X211999999Y-192540001D03*
%TO.P,J2,12,12*%
%TO.N,/DRLRightNeg*%
X208499998Y-192540001D03*
%TO.P,J2,13,13*%
%TO.N,/RSignalLightNeg*%
X204999997Y-192540001D03*
%TO.P,J2,14,14*%
%TO.N,/BrakeLightNeg*%
X201499994Y-192540001D03*
%TO.P,J2,15,15*%
X197999994Y-192540001D03*
%TO.P,J2,16,16*%
X194499993Y-192540001D03*
%TO.P,J2,17,17*%
%TO.N,GND*%
X190999992Y-192540001D03*
%TO.P,J2,18,18*%
%TO.N,/GreenLED5*%
X187499992Y-192540001D03*
%TO.P,J2,19,19*%
%TO.N,/GreenLED4*%
X183999991Y-192540001D03*
%TO.P,J2,20,20*%
%TO.N,/GreenLED3*%
X180499990Y-192540001D03*
%TD*%
D28*
%TO.P,J3,1,1*%
%TO.N,+12V*%
X251573954Y-192000000D03*
%TO.P,J3,2,2*%
%TO.N,/CAN_H*%
X248073953Y-192000000D03*
%TO.P,J3,3,3*%
%TO.N,/CAN_L*%
X244573953Y-192000000D03*
%TO.P,J3,4,4*%
%TO.N,GND*%
X241073952Y-192000000D03*
%TD*%
D27*
%TO.P,J1,1,1*%
%TO.N,/HVSwitch+*%
X132000000Y-189039999D03*
%TO.P,J1,2,2*%
%TO.N,/HVSwitch-*%
X128499999Y-189039999D03*
%TO.P,J1,3,3*%
%TO.N,/LVSwitch+*%
X124999998Y-189039999D03*
%TO.P,J1,4,4*%
%TO.N,/LVSwitch-*%
X121499995Y-189039999D03*
%TO.P,J1,5,5*%
%TO.N,GND*%
X117999995Y-189039999D03*
%TO.P,J1,6,6*%
%TO.N,/BlueLED5*%
X114499994Y-189039999D03*
%TO.P,J1,7,7*%
%TO.N,/BlueLED4*%
X110999993Y-189039999D03*
%TO.P,J1,8,8*%
%TO.N,/BlueLED3*%
X107499993Y-189039999D03*
%TO.P,J1,9,9*%
%TO.N,/BlueLED2*%
X103999992Y-189039999D03*
%TO.P,J1,10,10*%
%TO.N,/BlueLED1*%
X100499991Y-189039999D03*
%TO.P,J1,11,11*%
%TO.N,/From_PreChargeBtn*%
X132000000Y-192540001D03*
%TO.P,J1,12,12*%
%TO.N,/Enable*%
X128499999Y-192540001D03*
%TO.P,J1,13,13*%
X124999998Y-192540001D03*
%TO.P,J1,14,14*%
%TO.N,/ChargeMode*%
X121499995Y-192540001D03*
%TO.P,J1,15,15*%
%TO.N,/To_ModeSelect*%
X117999995Y-192540001D03*
%TO.P,J1,16,16*%
%TO.N,/ReadyMode*%
X114499994Y-192540001D03*
%TO.P,J1,17,17*%
%TO.N,/LVActive*%
X110999993Y-192540001D03*
%TO.P,J1,18,18*%
%TO.N,/HVActive*%
X107499993Y-192540001D03*
%TO.P,J1,19,19*%
%TO.N,/HVILActive*%
X103999992Y-192540001D03*
%TO.P,J1,20,20*%
%TO.N,/DashFaultIndicator*%
X100499991Y-192540001D03*
%TD*%
D29*
%TO.N,/AccelIn*%
X194048601Y-82500000D03*
%TO.N,GND*%
X186500000Y-82500000D03*
X125375000Y-97897000D03*
X97560000Y-114417466D03*
X97306482Y-105196734D03*
X195150000Y-171101500D03*
X127000000Y-131158500D03*
X254500000Y-171397000D03*
X204048601Y-82500000D03*
X189698500Y-149500000D03*
X249103000Y-164500000D03*
X153395000Y-143960000D03*
X130121600Y-167128925D03*
X151522800Y-180730050D03*
X115802001Y-101024203D03*
X235650000Y-171101500D03*
X97500000Y-110000000D03*
X246250000Y-189250000D03*
X208650000Y-171101500D03*
X236150000Y-179601500D03*
X130250000Y-180460000D03*
X97560000Y-119000000D03*
X151631000Y-167413125D03*
X151697000Y-171852100D03*
X151448500Y-162960000D03*
X222150000Y-171101500D03*
X101000000Y-131198500D03*
X130175700Y-162689950D03*
D30*
X261500000Y-154000000D03*
D29*
X182650000Y-179601500D03*
X182150000Y-171101500D03*
X209150000Y-179601500D03*
X130001500Y-171567900D03*
X151576900Y-176291075D03*
X130067500Y-176006875D03*
X222650000Y-179601500D03*
X196150000Y-179601500D03*
D30*
%TO.N,/CANTransceiver5V*%
X244500000Y-161500000D03*
D29*
%TO.N,+3.3V*%
X104830002Y-121700000D03*
D30*
X254500000Y-154000000D03*
D29*
X153395000Y-131357000D03*
X123830002Y-103097000D03*
X165500000Y-89500000D03*
X101000000Y-143603000D03*
X104830002Y-103200000D03*
X165500000Y-106000000D03*
X127000000Y-143500000D03*
D30*
%TO.N,+12V*%
X255286977Y-188286977D03*
%TO.N,Net-(U5A-VIN)*%
X258000000Y-154000000D03*
%TD*%
%TO.N,/AccelIn*%
D31*
X194097202Y-78992798D02*
X194170000Y-78920000D01*
X194097202Y-104824061D02*
X194097202Y-85500000D01*
X194097202Y-85500000D02*
X194097202Y-78992798D01*
X180157000Y-181697007D02*
X180157000Y-118764263D01*
X187499992Y-189039999D02*
X180157000Y-181697007D01*
X180157000Y-118764263D02*
X194097202Y-104824061D01*
%TO.N,GND*%
D32*
X116500000Y-92500000D02*
X116500000Y-94982701D01*
X116500000Y-94982701D02*
X116332705Y-95149996D01*
%TO.N,/CANTransceiver5V*%
D31*
X244500000Y-116550000D02*
X206870000Y-78920000D01*
X244500000Y-161500000D02*
X244500000Y-116550000D01*
%TO.N,+3.3V*%
D32*
X113444398Y-94261690D02*
X114332704Y-95149996D01*
X113444398Y-92500000D02*
X113444398Y-94261690D01*
%TO.N,/To_ModeSelect*%
X132857479Y-194219701D02*
X147298130Y-179779050D01*
X147472924Y-179779050D02*
X149401000Y-177850974D01*
X117999995Y-192540001D02*
X119679695Y-194219701D01*
X119679695Y-194219701D02*
X132857479Y-194219701D01*
X149401000Y-120901000D02*
X141000000Y-112500000D01*
X149401000Y-177850974D02*
X149401000Y-120901000D01*
X147298130Y-179779050D02*
X147472924Y-179779050D01*
%TO.N,/HVSwitch-*%
X123145000Y-183685000D02*
X103000000Y-183685000D01*
X128499999Y-189039999D02*
X123145000Y-183685000D01*
%TO.N,/LVSwitch+*%
X100373299Y-187360299D02*
X84000000Y-170987000D01*
X124999998Y-189039999D02*
X123320298Y-187360299D01*
X84000000Y-170987000D02*
X84000000Y-160315000D01*
X123320298Y-187360299D02*
X100373299Y-187360299D01*
%TO.N,/LVSwitch-*%
X119820295Y-190719699D02*
X96142510Y-190719699D01*
X89107811Y-183685000D02*
X84000000Y-183685000D01*
X96142510Y-190719699D02*
X89107811Y-183685000D01*
X121499995Y-189039999D02*
X119820295Y-190719699D01*
%TO.N,/HVSwitch+*%
X132000000Y-189039999D02*
X103275001Y-160315000D01*
X103275001Y-160315000D02*
X103000000Y-160315000D01*
%TO.N,/ReadyMode*%
X116980694Y-195020701D02*
X138902121Y-195020701D01*
X114499994Y-192540001D02*
X116980694Y-195020701D01*
X150202000Y-117002000D02*
X141000000Y-107800000D01*
X150202000Y-183720822D02*
X150202000Y-117002000D01*
X138902121Y-195020701D02*
X150202000Y-183720822D01*
%TO.N,/ChargeMode*%
X123320297Y-190719699D02*
X132695755Y-190719699D01*
X132695755Y-190719699D02*
X144000000Y-179415454D01*
X121499995Y-192540001D02*
X123320297Y-190719699D01*
X144628500Y-128704526D02*
X144628500Y-119141000D01*
X142687500Y-117200000D02*
X141000000Y-117200000D01*
X144000000Y-179415454D02*
X144000000Y-129333026D01*
X144000000Y-129333026D02*
X144628500Y-128704526D01*
X144628500Y-119141000D02*
X142687500Y-117200000D01*
%TO.N,/BrakePedalIn*%
X191630000Y-188409991D02*
X190999992Y-189039999D01*
%TO.N,/ThermalShutoff*%
X194499993Y-189039999D02*
X194170000Y-188710006D01*
%TD*%
M02*
