G04 #@! TF.GenerationSoftware,KiCad,Pcbnew,9.0.8*
G04 #@! TF.CreationDate,2026-07-20T19:44:19-04:00*
G04 #@! TF.ProjectId,DC,44432e6b-6963-4616-945f-706362585858,rev?*
G04 #@! TF.SameCoordinates,Original*
G04 #@! TF.FileFunction,Copper,L4,Bot*
G04 #@! TF.FilePolarity,Positive*
%FSLAX46Y46*%
G04 Gerber Fmt 4.6, Leading zero omitted, Abs format (unit mm)*
G04 Created by KiCad (PCBNEW 9.0.8) date 2026-07-20 19:44:19*
%MOMM*%
%LPD*%
G01*
G04 APERTURE LIST*
G04 #@! TA.AperFunction,ComponentPad*
%ADD10R,1.300000X1.300000*%
G04 #@! TD*
G04 #@! TA.AperFunction,ComponentPad*
%ADD11C,1.300000*%
G04 #@! TD*
G04 #@! TA.AperFunction,ComponentPad*
%ADD12C,1.200000*%
G04 #@! TD*
G04 #@! TA.AperFunction,ComponentPad*
%ADD13R,8.000000X2.000000*%
G04 #@! TD*
G04 #@! TA.AperFunction,ComponentPad*
%ADD14C,1.270000*%
G04 #@! TD*
G04 #@! TA.AperFunction,ComponentPad*
%ADD15C,2.260600*%
G04 #@! TD*
G04 #@! TA.AperFunction,ComponentPad*
%ADD16R,2.775000X2.775000*%
G04 #@! TD*
G04 #@! TA.AperFunction,ComponentPad*
%ADD17C,2.775000*%
G04 #@! TD*
G04 #@! TA.AperFunction,ComponentPad*
%ADD18O,2.540000X1.270000*%
G04 #@! TD*
G04 #@! TA.AperFunction,ComponentPad*
%ADD19R,1.498600X1.498600*%
G04 #@! TD*
G04 #@! TA.AperFunction,ComponentPad*
%ADD20C,1.498600*%
G04 #@! TD*
G04 #@! TA.AperFunction,ComponentPad*
%ADD21C,1.574800*%
G04 #@! TD*
G04 #@! TA.AperFunction,ComponentPad*
%ADD22R,1.524000X1.524000*%
G04 #@! TD*
G04 #@! TA.AperFunction,ComponentPad*
%ADD23C,1.524000*%
G04 #@! TD*
G04 #@! TA.AperFunction,ComponentPad*
%ADD24C,2.100000*%
G04 #@! TD*
G04 #@! TA.AperFunction,ComponentPad*
%ADD25C,3.000000*%
G04 #@! TD*
G04 #@! TA.AperFunction,SMDPad,CuDef*
%ADD26R,0.855600X1.600000*%
G04 #@! TD*
G04 #@! TA.AperFunction,ComponentPad*
%ADD27C,2.057400*%
G04 #@! TD*
G04 #@! TA.AperFunction,ComponentPad*
%ADD28C,1.905000*%
G04 #@! TD*
G04 #@! TA.AperFunction,ViaPad*
%ADD29C,0.600000*%
G04 #@! TD*
G04 #@! TA.AperFunction,ViaPad*
%ADD30C,1.270000*%
G04 #@! TD*
G04 #@! TA.AperFunction,Conductor*
%ADD31C,0.500000*%
G04 #@! TD*
G04 #@! TA.AperFunction,Conductor*
%ADD32C,0.300000*%
G04 #@! TD*
G04 APERTURE END LIST*
D10*
X93500000Y-133000000D03*
D11*
X93500000Y-140620000D03*
D12*
X89000000Y-134270000D03*
X89000000Y-139350000D03*
X89000000Y-136810000D03*
D10*
X145500000Y-133000000D03*
D11*
X145500000Y-140620000D03*
D12*
X141000000Y-134270000D03*
X141000000Y-139350000D03*
X141000000Y-136810000D03*
D13*
X84000000Y-160315000D03*
X84000000Y-183685000D03*
X103000000Y-160315000D03*
X103000000Y-183685000D03*
D14*
X122332704Y-95149996D03*
X120332705Y-95149996D03*
X118332704Y-95149996D03*
X116332705Y-95149996D03*
X114332704Y-95149996D03*
X112332706Y-95149996D03*
X110332705Y-95149996D03*
X108332704Y-95149996D03*
D15*
X76832705Y-83499996D03*
X76782692Y-74999995D03*
D16*
X141000000Y-117200000D03*
D17*
X141000000Y-112500000D03*
X141000000Y-107800000D03*
X139410000Y-120375000D03*
X142590000Y-120375000D03*
X139410000Y-104625000D03*
X142590000Y-104625000D03*
D18*
X116830001Y-107799999D03*
X116830002Y-112500000D03*
X116830002Y-117200000D03*
X112000000Y-107799999D03*
X112000000Y-112500000D03*
X112000000Y-117200000D03*
D19*
X249810000Y-168190000D03*
D20*
X247270000Y-168190000D03*
X244730000Y-168190000D03*
X242190000Y-168190000D03*
X242190000Y-175810000D03*
X244730000Y-175810000D03*
X247270000Y-175810000D03*
X249810000Y-175810000D03*
D21*
X250500000Y-181000000D03*
X247960000Y-181000000D03*
D22*
X227190000Y-76380000D03*
D23*
X227190000Y-78920000D03*
X224650000Y-76380000D03*
X224650000Y-78920000D03*
X222110000Y-76380000D03*
X222110000Y-78920000D03*
X219570000Y-76380000D03*
X219570000Y-78920000D03*
X217030000Y-76380000D03*
X217030000Y-78920000D03*
X214490000Y-76380000D03*
X214490000Y-78920000D03*
X211950000Y-76380000D03*
X211950000Y-78920000D03*
X209410000Y-76380000D03*
X209410000Y-78920000D03*
X206870000Y-76380000D03*
X206870000Y-78920000D03*
X204330000Y-76380000D03*
X204330000Y-78920000D03*
X201790000Y-76380000D03*
X201790000Y-78920000D03*
X199250000Y-76380000D03*
X199250000Y-78920000D03*
X196710000Y-76380000D03*
X196710000Y-78920000D03*
X194170000Y-76380000D03*
X194170000Y-78920000D03*
X191630000Y-76380000D03*
X191630000Y-78920000D03*
X189090000Y-76380000D03*
X189090000Y-78920000D03*
X186550000Y-76380000D03*
X186550000Y-78920000D03*
X184010000Y-76380000D03*
X184010000Y-78920000D03*
X181470000Y-76380000D03*
X181470000Y-78920000D03*
X227190000Y-137340000D03*
X227190000Y-139880000D03*
X224650000Y-137340000D03*
X224650000Y-139880000D03*
X222110000Y-137340000D03*
X222110000Y-139880000D03*
X219570000Y-137340000D03*
X219570000Y-139880000D03*
X217030000Y-137340000D03*
X217030000Y-139880000D03*
X214490000Y-137340000D03*
X214490000Y-139880000D03*
X211950000Y-137340000D03*
X211950000Y-139880000D03*
X209410000Y-137340000D03*
X209410000Y-139880000D03*
X206870000Y-137340000D03*
X206870000Y-139880000D03*
X204330000Y-137340000D03*
X204330000Y-139880000D03*
X201790000Y-137340000D03*
X201790000Y-139880000D03*
X199250000Y-137340000D03*
X199250000Y-139880000D03*
X196710000Y-137340000D03*
X196710000Y-139880000D03*
X194170000Y-137340000D03*
X194170000Y-139880000D03*
X191630000Y-137340000D03*
X191630000Y-139880000D03*
X189090000Y-137340000D03*
X189090000Y-139880000D03*
X186550000Y-137340000D03*
X186550000Y-139880000D03*
X184010000Y-137340000D03*
X184010000Y-139880000D03*
X181470000Y-137340000D03*
X181470000Y-139880000D03*
D24*
X135000000Y-169000000D03*
X135700000Y-174000000D03*
X146300000Y-169000000D03*
X147000000Y-174000000D03*
X142270000Y-169000000D03*
X139730000Y-169000000D03*
X141000000Y-174000000D03*
D25*
X134750000Y-165960000D03*
X134750000Y-176960000D03*
X147250000Y-176960000D03*
X147250000Y-165960000D03*
D10*
X120150000Y-133040000D03*
D11*
X120150000Y-140660000D03*
D12*
X115650000Y-134310000D03*
X115650000Y-139390000D03*
X115650000Y-136850000D03*
D26*
X113444398Y-92500000D03*
X116500000Y-92500000D03*
D27*
X211999999Y-189039999D03*
X208499998Y-189039999D03*
X204999997Y-189039999D03*
X201499994Y-189039999D03*
X197999994Y-189039999D03*
X194499993Y-189039999D03*
X190999992Y-189039999D03*
X187499992Y-189039999D03*
X183999991Y-189039999D03*
X180499990Y-189039999D03*
X211999999Y-192540001D03*
X208499998Y-192540001D03*
X204999997Y-192540001D03*
X201499994Y-192540001D03*
X197999994Y-192540001D03*
X194499993Y-192540001D03*
X190999992Y-192540001D03*
X187499992Y-192540001D03*
X183999991Y-192540001D03*
X180499990Y-192540001D03*
D28*
X251573954Y-192000000D03*
X248073953Y-192000000D03*
X244573953Y-192000000D03*
X241073952Y-192000000D03*
D27*
X132000000Y-189039999D03*
X128499999Y-189039999D03*
X124999998Y-189039999D03*
X121499995Y-189039999D03*
X117999995Y-189039999D03*
X114499994Y-189039999D03*
X110999993Y-189039999D03*
X107499993Y-189039999D03*
X103999992Y-189039999D03*
X100499991Y-189039999D03*
X132000000Y-192540001D03*
X128499999Y-192540001D03*
X124999998Y-192540001D03*
X121499995Y-192540001D03*
X117999995Y-192540001D03*
X114499994Y-192540001D03*
X110999993Y-192540001D03*
X107499993Y-192540001D03*
X103999992Y-192540001D03*
X100499991Y-192540001D03*
D29*
X194048601Y-82500000D03*
X186500000Y-82500000D03*
X125375000Y-97897000D03*
X97560000Y-114417466D03*
X97306482Y-105196734D03*
X195150000Y-171101500D03*
X127000000Y-131158500D03*
X254500000Y-171397000D03*
X204048601Y-82500000D03*
X189698500Y-149500000D03*
X249103000Y-164500000D03*
X153395000Y-143960000D03*
X130121600Y-167128925D03*
X151522800Y-180730050D03*
X115802001Y-101024203D03*
X235650000Y-171101500D03*
X97500000Y-110000000D03*
X246250000Y-189250000D03*
X208650000Y-171101500D03*
X236150000Y-179601500D03*
X130250000Y-180460000D03*
X97560000Y-119000000D03*
X151631000Y-167413125D03*
X151697000Y-171852100D03*
X151448500Y-162960000D03*
X222150000Y-171101500D03*
X101000000Y-131198500D03*
X130175700Y-162689950D03*
D30*
X261500000Y-154000000D03*
D29*
X182650000Y-179601500D03*
X182150000Y-171101500D03*
X209150000Y-179601500D03*
X130001500Y-171567900D03*
X151576900Y-176291075D03*
X130067500Y-176006875D03*
X222650000Y-179601500D03*
X196150000Y-179601500D03*
D30*
X244500000Y-161500000D03*
D29*
X104830002Y-121700000D03*
D30*
X254500000Y-154000000D03*
D29*
X153395000Y-131357000D03*
X123830002Y-103097000D03*
X165500000Y-89500000D03*
X101000000Y-143603000D03*
X104830002Y-103200000D03*
X165500000Y-106000000D03*
X127000000Y-143500000D03*
D30*
X255286977Y-188286977D03*
X258000000Y-154000000D03*
D31*
X194097202Y-78992798D02*
X194170000Y-78920000D01*
X194097202Y-104824061D02*
X194097202Y-85500000D01*
X194097202Y-85500000D02*
X194097202Y-78992798D01*
X180157000Y-181697007D02*
X180157000Y-118764263D01*
X187499992Y-189039999D02*
X180157000Y-181697007D01*
X180157000Y-118764263D02*
X194097202Y-104824061D01*
D32*
X116500000Y-92500000D02*
X116500000Y-94982701D01*
X116500000Y-94982701D02*
X116332705Y-95149996D01*
D31*
X244500000Y-116550000D02*
X206870000Y-78920000D01*
X244500000Y-161500000D02*
X244500000Y-116550000D01*
D32*
X113444398Y-94261690D02*
X114332704Y-95149996D01*
X113444398Y-92500000D02*
X113444398Y-94261690D01*
X132857479Y-194219701D02*
X147298130Y-179779050D01*
X147472924Y-179779050D02*
X149401000Y-177850974D01*
X117999995Y-192540001D02*
X119679695Y-194219701D01*
X119679695Y-194219701D02*
X132857479Y-194219701D01*
X149401000Y-120901000D02*
X141000000Y-112500000D01*
X149401000Y-177850974D02*
X149401000Y-120901000D01*
X147298130Y-179779050D02*
X147472924Y-179779050D01*
X123145000Y-183685000D02*
X103000000Y-183685000D01*
X128499999Y-189039999D02*
X123145000Y-183685000D01*
X100373299Y-187360299D02*
X84000000Y-170987000D01*
X124999998Y-189039999D02*
X123320298Y-187360299D01*
X84000000Y-170987000D02*
X84000000Y-160315000D01*
X123320298Y-187360299D02*
X100373299Y-187360299D01*
X119820295Y-190719699D02*
X96142510Y-190719699D01*
X89107811Y-183685000D02*
X84000000Y-183685000D01*
X96142510Y-190719699D02*
X89107811Y-183685000D01*
X121499995Y-189039999D02*
X119820295Y-190719699D01*
X132000000Y-189039999D02*
X103275001Y-160315000D01*
X103275001Y-160315000D02*
X103000000Y-160315000D01*
X116980694Y-195020701D02*
X138902121Y-195020701D01*
X114499994Y-192540001D02*
X116980694Y-195020701D01*
X150202000Y-117002000D02*
X141000000Y-107800000D01*
X150202000Y-183720822D02*
X150202000Y-117002000D01*
X138902121Y-195020701D02*
X150202000Y-183720822D01*
X123320297Y-190719699D02*
X132695755Y-190719699D01*
X132695755Y-190719699D02*
X144000000Y-179415454D01*
X121499995Y-192540001D02*
X123320297Y-190719699D01*
X144628500Y-128704526D02*
X144628500Y-119141000D01*
X142687500Y-117200000D02*
X141000000Y-117200000D01*
X144000000Y-179415454D02*
X144000000Y-129333026D01*
X144000000Y-129333026D02*
X144628500Y-128704526D01*
X144628500Y-119141000D02*
X142687500Y-117200000D01*
X191630000Y-188409991D02*
X190999992Y-189039999D01*
X194499993Y-189039999D02*
X194170000Y-188710006D01*
M02*
