M48
; DRILL file KiCad 10.0.4 date 2026-07-24T23:58:54
; FORMAT={-:-/ absolute / metric / decimal}
; #@! TF.CreationDate,2026-07-24T23:58:54-04:00
; #@! TF.GenerationSoftware,Kicad,Pcbnew,10.0.4
; #@! TF.FileFunction,NonPlated,1,4,NPTH
FMAT,2
METRIC
; #@! TA.AperFunction,NonPlated,NPTH,ComponentDrill
T1C1.300
; #@! TA.AperFunction,NonPlated,NPTH,ComponentDrill
T2C2.743
; #@! TA.AperFunction,NonPlated,NPTH,ComponentDrill
T3C3.200
; #@! TA.AperFunction,NonPlated,NPTH,ComponentDrill
T4C4.039
; #@! TA.AperFunction,NonPlated,NPTH,ComponentDrill
T5C4.500
%
G90
G05
T1
X82.65Y-130.46
X82.65Y-143.16
X95.35Y-130.46
X95.35Y-143.16
X109.3Y-130.5
X109.3Y-143.2
X122.0Y-130.5
X122.0Y-143.2
X134.65Y-130.46
X134.65Y-143.16
X147.35Y-130.46
X147.35Y-143.16
T2
X82.833Y-65.95
X82.833Y-99.05
X147.833Y-65.95
X147.833Y-99.05
T3
X178.93Y-117.02
X229.73Y-132.26
X231.0Y-84.0
T4
X93.5Y-191.5
X139.0Y-191.5
X173.5Y-191.5
X219.0Y-191.5
T5
X75.5Y-64.0
X75.5Y-193.0
X264.0Y-64.0
X264.0Y-193.0
M30
