M48
; DRILL file KiCad 10.0.4 date 2026-07-24T23:58:54
; FORMAT={-:-/ absolute / metric / decimal}
; #@! TF.CreationDate,2026-07-24T23:58:54-04:00
; #@! TF.GenerationSoftware,Kicad,Pcbnew,10.0.4
; #@! TF.FileFunction,Plated,1,4,PTH
FMAT,2
METRIC
; #@! TA.AperFunction,Plated,PTH,ViaDrill
T1C0.300
; #@! TA.AperFunction,Plated,PTH,ViaDrill
T2C0.600
; #@! TA.AperFunction,Plated,PTH,ComponentDrill
T3C0.762
; #@! TA.AperFunction,Plated,PTH,ComponentDrill
T4C0.900
; #@! TA.AperFunction,Plated,PTH,ComponentDrill
T5C0.991
; #@! TA.AperFunction,Plated,PTH,ComponentDrill
T6C1.000
; #@! TA.AperFunction,Plated,PTH,ComponentDrill
T7C1.016
; #@! TA.AperFunction,Plated,PTH,ComponentDrill
T8C1.067
; #@! TA.AperFunction,Plated,PTH,ComponentDrill
T9C1.397
; #@! TA.AperFunction,Plated,PTH,ComponentDrill
T10C1.400
; #@! TA.AperFunction,Plated,PTH,ComponentDrill
T11C1.549
; #@! TA.AperFunction,Plated,PTH,ComponentDrill
T12C1.753
; #@! TA.AperFunction,Plated,PTH,ComponentDrill
T13C1.850
; #@! TA.AperFunction,Plated,PTH,ComponentDrill
T14C2.000
%
G90
G05
T1
X97.306Y-105.197
X97.5Y-110.0
X97.56Y-114.417
X97.56Y-119.0
X101.0Y-131.198
X101.0Y-143.603
X104.83Y-103.2
X104.83Y-121.7
X115.802Y-101.024
X123.83Y-103.097
X125.375Y-97.897
X127.0Y-131.159
X127.0Y-143.5
X130.001Y-171.568
X130.067Y-176.007
X130.122Y-167.129
X130.176Y-162.69
X130.25Y-180.46
X151.448Y-162.96
X151.523Y-180.73
X151.577Y-176.291
X151.631Y-167.413
X151.697Y-171.852
X153.395Y-131.357
X153.395Y-143.96
X165.5Y-89.5
X165.5Y-106.0
X182.15Y-171.101
X182.65Y-179.601
X186.5Y-82.5
X189.698Y-149.5
X194.049Y-82.5
X195.15Y-171.101
X196.15Y-179.601
X204.049Y-82.5
X208.65Y-171.101
X209.15Y-179.601
X222.15Y-171.101
X222.65Y-179.601
X235.65Y-171.101
X236.15Y-179.601
X246.25Y-189.25
X249.103Y-164.5
X254.5Y-171.397
T2
X244.5Y-161.5
X254.5Y-154.0
X255.287Y-188.287
X258.0Y-154.0
X261.5Y-154.0
T3
X108.333Y-95.15
X110.333Y-95.15
X112.333Y-95.15
X114.333Y-95.15
X116.333Y-95.15
X118.333Y-95.15
X120.333Y-95.15
X122.333Y-95.15
T4
X89.0Y-134.27
X89.0Y-136.81
X89.0Y-139.35
X115.65Y-134.31
X115.65Y-136.85
X115.65Y-139.39
X141.0Y-134.27
X141.0Y-136.81
X141.0Y-139.35
T5
X242.19Y-168.19
X242.19Y-175.81
X244.73Y-168.19
X244.73Y-175.81
X247.27Y-168.19
X247.27Y-175.81
X249.81Y-168.19
X249.81Y-175.81
T6
X93.5Y-133.0
X93.5Y-140.62
X120.15Y-133.04
X120.15Y-140.66
X145.5Y-133.0
X145.5Y-140.62
T7
X181.47Y-76.38
X181.47Y-78.92
X181.47Y-137.34
X181.47Y-139.88
X184.01Y-76.38
X184.01Y-78.92
X184.01Y-137.34
X184.01Y-139.88
X186.55Y-76.38
X186.55Y-78.92
X186.55Y-137.34
X186.55Y-139.88
X189.09Y-76.38
X189.09Y-78.92
X189.09Y-137.34
X189.09Y-139.88
X191.63Y-76.38
X191.63Y-78.92
X191.63Y-137.34
X191.63Y-139.88
X194.17Y-76.38
X194.17Y-78.92
X194.17Y-137.34
X194.17Y-139.88
X196.71Y-76.38
X196.71Y-78.92
X196.71Y-137.34
X196.71Y-139.88
X199.25Y-76.38
X199.25Y-78.92
X199.25Y-137.34
X199.25Y-139.88
X201.79Y-76.38
X201.79Y-78.92
X201.79Y-137.34
X201.79Y-139.88
X204.33Y-76.38
X204.33Y-78.92
X204.33Y-137.34
X204.33Y-139.88
X206.87Y-76.38
X206.87Y-78.92
X206.87Y-137.34
X206.87Y-139.88
X209.41Y-76.38
X209.41Y-78.92
X209.41Y-137.34
X209.41Y-139.88
X211.95Y-76.38
X211.95Y-78.92
X211.95Y-137.34
X211.95Y-139.88
X214.49Y-76.38
X214.49Y-78.92
X214.49Y-137.34
X214.49Y-139.88
X217.03Y-76.38
X217.03Y-78.92
X217.03Y-137.34
X217.03Y-139.88
X219.57Y-76.38
X219.57Y-78.92
X219.57Y-137.34
X219.57Y-139.88
X222.11Y-76.38
X222.11Y-78.92
X222.11Y-137.34
X222.11Y-139.88
X224.65Y-76.38
X224.65Y-78.92
X224.65Y-137.34
X224.65Y-139.88
X227.19Y-76.38
X227.19Y-78.92
X227.19Y-137.34
X227.19Y-139.88
T8
X247.96Y-181.0
X250.5Y-181.0
T9
X241.074Y-192.0
X244.574Y-192.0
X248.074Y-192.0
X251.574Y-192.0
T10
X135.0Y-169.0
X135.7Y-174.0
X139.73Y-169.0
X141.0Y-174.0
X142.27Y-169.0
X146.3Y-169.0
X147.0Y-174.0
T11
X100.5Y-189.04
X100.5Y-192.54
X104.0Y-189.04
X104.0Y-192.54
X107.5Y-189.04
X107.5Y-192.54
X111.0Y-189.04
X111.0Y-192.54
X114.5Y-189.04
X114.5Y-192.54
X118.0Y-189.04
X118.0Y-192.54
X121.5Y-189.04
X121.5Y-192.54
X125.0Y-189.04
X125.0Y-192.54
X128.5Y-189.04
X128.5Y-192.54
X132.0Y-189.04
X132.0Y-192.54
X180.5Y-189.04
X180.5Y-192.54
X184.0Y-189.04
X184.0Y-192.54
X187.5Y-189.04
X187.5Y-192.54
X191.0Y-189.04
X191.0Y-192.54
X194.5Y-189.04
X194.5Y-192.54
X198.0Y-189.04
X198.0Y-192.54
X201.5Y-189.04
X201.5Y-192.54
X205.0Y-189.04
X205.0Y-192.54
X208.5Y-189.04
X208.5Y-192.54
X212.0Y-189.04
X212.0Y-192.54
T12
X76.783Y-75.0
X76.833Y-83.5
T13
X139.41Y-104.625
X139.41Y-120.375
X141.0Y-107.8
X141.0Y-112.5
X141.0Y-117.2
X142.59Y-104.625
X142.59Y-120.375
T14
X134.75Y-165.96
X134.75Y-176.96
X147.25Y-165.96
X147.25Y-176.96
T6
X81.15Y-160.315G85X86.85Y-160.315
G05
X81.15Y-183.685G85X86.85Y-183.685
G05
X100.15Y-160.315G85X105.85Y-160.315
G05
X100.15Y-183.685G85X105.85Y-183.685
G05
X111.375Y-107.8G85X112.625Y-107.8
G05
X111.375Y-112.5G85X112.625Y-112.5
G05
X111.375Y-117.2G85X112.625Y-117.2
G05
X116.205Y-107.8G85X117.455Y-107.8
G05
X116.205Y-112.5G85X117.455Y-112.5
G05
X116.205Y-117.2G85X117.455Y-117.2
G05
M30
