%TF.GenerationSoftware,KiCad,Pcbnew,9.0.7*%
%TF.CreationDate,2026-02-23T14:12:58-05:00*%
%TF.ProjectId,DC,44432e6b-6963-4616-945f-706362585858,rev?*%
%TF.SameCoordinates,Original*%
%TF.FileFunction,Drillmap*%
%TF.FilePolarity,Positive*%
%FSLAX45Y45*%
G04 Gerber Fmt 4.5, Leading zero omitted, Abs format (unit mm)*
G04 Created by KiCad (PCBNEW 9.0.7) date 2026-02-23 14:12:58*
%MOMM*%
%LPD*%
G01*
G04 APERTURE LIST*
%ADD10C,0.500000*%
%ADD11C,0.200000*%
%ADD12C,0.274320*%
%ADD13C,0.320000*%
%ADD14C,0.403860*%
%ADD15C,0.450000*%
G04 APERTURE END LIST*
D10*
X7000000Y-5850000D02*
X26950000Y-5850000D01*
X26950000Y-19850000D01*
X7000000Y-19850000D01*
X7000000Y-5850000D01*
D11*
D12*
X8146111Y-6457840D02*
X8420431Y-6732160D01*
X8420431Y-6457840D02*
X8146111Y-6732160D01*
X8146111Y-9767840D02*
X8420431Y-10042160D01*
X8420431Y-9767840D02*
X8146111Y-10042160D01*
X14646110Y-6457840D02*
X14920430Y-6732160D01*
X14920430Y-6457840D02*
X14646110Y-6732160D01*
X14646110Y-9767840D02*
X14920430Y-10042160D01*
X14920430Y-9767840D02*
X14646110Y-10042160D01*
D13*
X18053000Y-11702000D02*
G75*
G02*
X17733000Y-11702000I-160000J0D01*
G01*
X17733000Y-11702000D02*
G75*
G02*
X18053000Y-11702000I160000J0D01*
G01*
X23133000Y-13226000D02*
G75*
G02*
X22813000Y-13226000I-160000J0D01*
G01*
X22813000Y-13226000D02*
G75*
G02*
X23133000Y-13226000I160000J0D01*
G01*
X23260000Y-8400000D02*
G75*
G02*
X22940000Y-8400000I-160000J0D01*
G01*
X22940000Y-8400000D02*
G75*
G02*
X23260000Y-8400000I160000J0D01*
G01*
D14*
X9349999Y-18948070D02*
X9349999Y-19351930D01*
X9148069Y-19150000D02*
X9551929Y-19150000D01*
X13900000Y-18948070D02*
X13900000Y-19351930D01*
X13698070Y-19150000D02*
X14101930Y-19150000D01*
X17349999Y-18948070D02*
X17349999Y-19351930D01*
X17148069Y-19150000D02*
X17551929Y-19150000D01*
X21900000Y-18948070D02*
X21900000Y-19351930D01*
X21698070Y-19150000D02*
X22101930Y-19150000D01*
D15*
X7709101Y-6559101D02*
X7709101Y-6240899D01*
X7390899Y-6240899D01*
X7390899Y-6559101D01*
X7709101Y-6559101D01*
X7709101Y-19459101D02*
X7709101Y-19140899D01*
X7390899Y-19140899D01*
X7390899Y-19459101D01*
X7709101Y-19459101D01*
X26559101Y-6559101D02*
X26559101Y-6240899D01*
X26240899Y-6240899D01*
X26240899Y-6559101D01*
X26559101Y-6559101D01*
X26559101Y-19459101D02*
X26559101Y-19140899D01*
X26240899Y-19140899D01*
X26240899Y-19459101D01*
X26559101Y-19459101D01*
D11*
X7235777Y-20186484D02*
X7235777Y-19986484D01*
X7235777Y-19986484D02*
X7283396Y-19986484D01*
X7283396Y-19986484D02*
X7311967Y-19996008D01*
X7311967Y-19996008D02*
X7331015Y-20015055D01*
X7331015Y-20015055D02*
X7340539Y-20034103D01*
X7340539Y-20034103D02*
X7350062Y-20072198D01*
X7350062Y-20072198D02*
X7350062Y-20100770D01*
X7350062Y-20100770D02*
X7340539Y-20138865D01*
X7340539Y-20138865D02*
X7331015Y-20157912D01*
X7331015Y-20157912D02*
X7311967Y-20176960D01*
X7311967Y-20176960D02*
X7283396Y-20186484D01*
X7283396Y-20186484D02*
X7235777Y-20186484D01*
X7435777Y-20186484D02*
X7435777Y-20053150D01*
X7435777Y-20091246D02*
X7445301Y-20072198D01*
X7445301Y-20072198D02*
X7454824Y-20062674D01*
X7454824Y-20062674D02*
X7473872Y-20053150D01*
X7473872Y-20053150D02*
X7492920Y-20053150D01*
X7559586Y-20186484D02*
X7559586Y-20053150D01*
X7559586Y-19986484D02*
X7550062Y-19996008D01*
X7550062Y-19996008D02*
X7559586Y-20005531D01*
X7559586Y-20005531D02*
X7569110Y-19996008D01*
X7569110Y-19996008D02*
X7559586Y-19986484D01*
X7559586Y-19986484D02*
X7559586Y-20005531D01*
X7683396Y-20186484D02*
X7664348Y-20176960D01*
X7664348Y-20176960D02*
X7654824Y-20157912D01*
X7654824Y-20157912D02*
X7654824Y-19986484D01*
X7788158Y-20186484D02*
X7769110Y-20176960D01*
X7769110Y-20176960D02*
X7759586Y-20157912D01*
X7759586Y-20157912D02*
X7759586Y-19986484D01*
X8016729Y-20186484D02*
X8016729Y-19986484D01*
X8016729Y-19986484D02*
X8083396Y-20129341D01*
X8083396Y-20129341D02*
X8150062Y-19986484D01*
X8150062Y-19986484D02*
X8150062Y-20186484D01*
X8331015Y-20186484D02*
X8331015Y-20081722D01*
X8331015Y-20081722D02*
X8321491Y-20062674D01*
X8321491Y-20062674D02*
X8302443Y-20053150D01*
X8302443Y-20053150D02*
X8264348Y-20053150D01*
X8264348Y-20053150D02*
X8245301Y-20062674D01*
X8331015Y-20176960D02*
X8311967Y-20186484D01*
X8311967Y-20186484D02*
X8264348Y-20186484D01*
X8264348Y-20186484D02*
X8245301Y-20176960D01*
X8245301Y-20176960D02*
X8235777Y-20157912D01*
X8235777Y-20157912D02*
X8235777Y-20138865D01*
X8235777Y-20138865D02*
X8245301Y-20119817D01*
X8245301Y-20119817D02*
X8264348Y-20110293D01*
X8264348Y-20110293D02*
X8311967Y-20110293D01*
X8311967Y-20110293D02*
X8331015Y-20100770D01*
X8426253Y-20053150D02*
X8426253Y-20253150D01*
X8426253Y-20062674D02*
X8445301Y-20053150D01*
X8445301Y-20053150D02*
X8483396Y-20053150D01*
X8483396Y-20053150D02*
X8502444Y-20062674D01*
X8502444Y-20062674D02*
X8511967Y-20072198D01*
X8511967Y-20072198D02*
X8521491Y-20091246D01*
X8521491Y-20091246D02*
X8521491Y-20148389D01*
X8521491Y-20148389D02*
X8511967Y-20167436D01*
X8511967Y-20167436D02*
X8502444Y-20176960D01*
X8502444Y-20176960D02*
X8483396Y-20186484D01*
X8483396Y-20186484D02*
X8445301Y-20186484D01*
X8445301Y-20186484D02*
X8426253Y-20176960D01*
X8607205Y-20167436D02*
X8616729Y-20176960D01*
X8616729Y-20176960D02*
X8607205Y-20186484D01*
X8607205Y-20186484D02*
X8597682Y-20176960D01*
X8597682Y-20176960D02*
X8607205Y-20167436D01*
X8607205Y-20167436D02*
X8607205Y-20186484D01*
X8607205Y-20062674D02*
X8616729Y-20072198D01*
X8616729Y-20072198D02*
X8607205Y-20081722D01*
X8607205Y-20081722D02*
X8597682Y-20072198D01*
X8597682Y-20072198D02*
X8607205Y-20062674D01*
X8607205Y-20062674D02*
X8607205Y-20081722D01*
X6775000Y-20415000D02*
X6975000Y-20615000D01*
X6975000Y-20415000D02*
X6775000Y-20615000D01*
X7226253Y-20425531D02*
X7235777Y-20416008D01*
X7235777Y-20416008D02*
X7254824Y-20406484D01*
X7254824Y-20406484D02*
X7302443Y-20406484D01*
X7302443Y-20406484D02*
X7321491Y-20416008D01*
X7321491Y-20416008D02*
X7331015Y-20425531D01*
X7331015Y-20425531D02*
X7340539Y-20444579D01*
X7340539Y-20444579D02*
X7340539Y-20463627D01*
X7340539Y-20463627D02*
X7331015Y-20492198D01*
X7331015Y-20492198D02*
X7216729Y-20606484D01*
X7216729Y-20606484D02*
X7340539Y-20606484D01*
X7426253Y-20587436D02*
X7435777Y-20596960D01*
X7435777Y-20596960D02*
X7426253Y-20606484D01*
X7426253Y-20606484D02*
X7416729Y-20596960D01*
X7416729Y-20596960D02*
X7426253Y-20587436D01*
X7426253Y-20587436D02*
X7426253Y-20606484D01*
X7502443Y-20406484D02*
X7635777Y-20406484D01*
X7635777Y-20406484D02*
X7550062Y-20606484D01*
X7797682Y-20473150D02*
X7797682Y-20606484D01*
X7750062Y-20396960D02*
X7702443Y-20539817D01*
X7702443Y-20539817D02*
X7826253Y-20539817D01*
X7883396Y-20406484D02*
X8007205Y-20406484D01*
X8007205Y-20406484D02*
X7940539Y-20482674D01*
X7940539Y-20482674D02*
X7969110Y-20482674D01*
X7969110Y-20482674D02*
X7988158Y-20492198D01*
X7988158Y-20492198D02*
X7997682Y-20501722D01*
X7997682Y-20501722D02*
X8007205Y-20520770D01*
X8007205Y-20520770D02*
X8007205Y-20568389D01*
X8007205Y-20568389D02*
X7997682Y-20587436D01*
X7997682Y-20587436D02*
X7988158Y-20596960D01*
X7988158Y-20596960D02*
X7969110Y-20606484D01*
X7969110Y-20606484D02*
X7911967Y-20606484D01*
X7911967Y-20606484D02*
X7892920Y-20596960D01*
X7892920Y-20596960D02*
X7883396Y-20587436D01*
X8092920Y-20606484D02*
X8092920Y-20473150D01*
X8092920Y-20492198D02*
X8102443Y-20482674D01*
X8102443Y-20482674D02*
X8121491Y-20473150D01*
X8121491Y-20473150D02*
X8150063Y-20473150D01*
X8150063Y-20473150D02*
X8169110Y-20482674D01*
X8169110Y-20482674D02*
X8178634Y-20501722D01*
X8178634Y-20501722D02*
X8178634Y-20606484D01*
X8178634Y-20501722D02*
X8188158Y-20482674D01*
X8188158Y-20482674D02*
X8207205Y-20473150D01*
X8207205Y-20473150D02*
X8235777Y-20473150D01*
X8235777Y-20473150D02*
X8254824Y-20482674D01*
X8254824Y-20482674D02*
X8264348Y-20501722D01*
X8264348Y-20501722D02*
X8264348Y-20606484D01*
X8359586Y-20606484D02*
X8359586Y-20473150D01*
X8359586Y-20492198D02*
X8369110Y-20482674D01*
X8369110Y-20482674D02*
X8388158Y-20473150D01*
X8388158Y-20473150D02*
X8416729Y-20473150D01*
X8416729Y-20473150D02*
X8435777Y-20482674D01*
X8435777Y-20482674D02*
X8445301Y-20501722D01*
X8445301Y-20501722D02*
X8445301Y-20606484D01*
X8445301Y-20501722D02*
X8454825Y-20482674D01*
X8454825Y-20482674D02*
X8473872Y-20473150D01*
X8473872Y-20473150D02*
X8502444Y-20473150D01*
X8502444Y-20473150D02*
X8521491Y-20482674D01*
X8521491Y-20482674D02*
X8531015Y-20501722D01*
X8531015Y-20501722D02*
X8531015Y-20606484D01*
X8921491Y-20396960D02*
X8750063Y-20654103D01*
X9178634Y-20406484D02*
X9197682Y-20406484D01*
X9197682Y-20406484D02*
X9216729Y-20416008D01*
X9216729Y-20416008D02*
X9226253Y-20425531D01*
X9226253Y-20425531D02*
X9235777Y-20444579D01*
X9235777Y-20444579D02*
X9245301Y-20482674D01*
X9245301Y-20482674D02*
X9245301Y-20530293D01*
X9245301Y-20530293D02*
X9235777Y-20568389D01*
X9235777Y-20568389D02*
X9226253Y-20587436D01*
X9226253Y-20587436D02*
X9216729Y-20596960D01*
X9216729Y-20596960D02*
X9197682Y-20606484D01*
X9197682Y-20606484D02*
X9178634Y-20606484D01*
X9178634Y-20606484D02*
X9159587Y-20596960D01*
X9159587Y-20596960D02*
X9150063Y-20587436D01*
X9150063Y-20587436D02*
X9140539Y-20568389D01*
X9140539Y-20568389D02*
X9131015Y-20530293D01*
X9131015Y-20530293D02*
X9131015Y-20482674D01*
X9131015Y-20482674D02*
X9140539Y-20444579D01*
X9140539Y-20444579D02*
X9150063Y-20425531D01*
X9150063Y-20425531D02*
X9159587Y-20416008D01*
X9159587Y-20416008D02*
X9178634Y-20406484D01*
X9331015Y-20587436D02*
X9340539Y-20596960D01*
X9340539Y-20596960D02*
X9331015Y-20606484D01*
X9331015Y-20606484D02*
X9321491Y-20596960D01*
X9321491Y-20596960D02*
X9331015Y-20587436D01*
X9331015Y-20587436D02*
X9331015Y-20606484D01*
X9531015Y-20606484D02*
X9416729Y-20606484D01*
X9473872Y-20606484D02*
X9473872Y-20406484D01*
X9473872Y-20406484D02*
X9454825Y-20435055D01*
X9454825Y-20435055D02*
X9435777Y-20454103D01*
X9435777Y-20454103D02*
X9416729Y-20463627D01*
X9654825Y-20406484D02*
X9673872Y-20406484D01*
X9673872Y-20406484D02*
X9692920Y-20416008D01*
X9692920Y-20416008D02*
X9702444Y-20425531D01*
X9702444Y-20425531D02*
X9711968Y-20444579D01*
X9711968Y-20444579D02*
X9721491Y-20482674D01*
X9721491Y-20482674D02*
X9721491Y-20530293D01*
X9721491Y-20530293D02*
X9711968Y-20568389D01*
X9711968Y-20568389D02*
X9702444Y-20587436D01*
X9702444Y-20587436D02*
X9692920Y-20596960D01*
X9692920Y-20596960D02*
X9673872Y-20606484D01*
X9673872Y-20606484D02*
X9654825Y-20606484D01*
X9654825Y-20606484D02*
X9635777Y-20596960D01*
X9635777Y-20596960D02*
X9626253Y-20587436D01*
X9626253Y-20587436D02*
X9616729Y-20568389D01*
X9616729Y-20568389D02*
X9607206Y-20530293D01*
X9607206Y-20530293D02*
X9607206Y-20482674D01*
X9607206Y-20482674D02*
X9616729Y-20444579D01*
X9616729Y-20444579D02*
X9626253Y-20425531D01*
X9626253Y-20425531D02*
X9635777Y-20416008D01*
X9635777Y-20416008D02*
X9654825Y-20406484D01*
X9835777Y-20492198D02*
X9816729Y-20482674D01*
X9816729Y-20482674D02*
X9807206Y-20473150D01*
X9807206Y-20473150D02*
X9797682Y-20454103D01*
X9797682Y-20454103D02*
X9797682Y-20444579D01*
X9797682Y-20444579D02*
X9807206Y-20425531D01*
X9807206Y-20425531D02*
X9816729Y-20416008D01*
X9816729Y-20416008D02*
X9835777Y-20406484D01*
X9835777Y-20406484D02*
X9873872Y-20406484D01*
X9873872Y-20406484D02*
X9892920Y-20416008D01*
X9892920Y-20416008D02*
X9902444Y-20425531D01*
X9902444Y-20425531D02*
X9911968Y-20444579D01*
X9911968Y-20444579D02*
X9911968Y-20454103D01*
X9911968Y-20454103D02*
X9902444Y-20473150D01*
X9902444Y-20473150D02*
X9892920Y-20482674D01*
X9892920Y-20482674D02*
X9873872Y-20492198D01*
X9873872Y-20492198D02*
X9835777Y-20492198D01*
X9835777Y-20492198D02*
X9816729Y-20501722D01*
X9816729Y-20501722D02*
X9807206Y-20511246D01*
X9807206Y-20511246D02*
X9797682Y-20530293D01*
X9797682Y-20530293D02*
X9797682Y-20568389D01*
X9797682Y-20568389D02*
X9807206Y-20587436D01*
X9807206Y-20587436D02*
X9816729Y-20596960D01*
X9816729Y-20596960D02*
X9835777Y-20606484D01*
X9835777Y-20606484D02*
X9873872Y-20606484D01*
X9873872Y-20606484D02*
X9892920Y-20596960D01*
X9892920Y-20596960D02*
X9902444Y-20587436D01*
X9902444Y-20587436D02*
X9911968Y-20568389D01*
X9911968Y-20568389D02*
X9911968Y-20530293D01*
X9911968Y-20530293D02*
X9902444Y-20511246D01*
X9902444Y-20511246D02*
X9892920Y-20501722D01*
X9892920Y-20501722D02*
X9873872Y-20492198D01*
X10035777Y-20406484D02*
X10054825Y-20406484D01*
X10054825Y-20406484D02*
X10073872Y-20416008D01*
X10073872Y-20416008D02*
X10083396Y-20425531D01*
X10083396Y-20425531D02*
X10092920Y-20444579D01*
X10092920Y-20444579D02*
X10102444Y-20482674D01*
X10102444Y-20482674D02*
X10102444Y-20530293D01*
X10102444Y-20530293D02*
X10092920Y-20568389D01*
X10092920Y-20568389D02*
X10083396Y-20587436D01*
X10083396Y-20587436D02*
X10073872Y-20596960D01*
X10073872Y-20596960D02*
X10054825Y-20606484D01*
X10054825Y-20606484D02*
X10035777Y-20606484D01*
X10035777Y-20606484D02*
X10016729Y-20596960D01*
X10016729Y-20596960D02*
X10007206Y-20587436D01*
X10007206Y-20587436D02*
X9997682Y-20568389D01*
X9997682Y-20568389D02*
X9988158Y-20530293D01*
X9988158Y-20530293D02*
X9988158Y-20482674D01*
X9988158Y-20482674D02*
X9997682Y-20444579D01*
X9997682Y-20444579D02*
X10007206Y-20425531D01*
X10007206Y-20425531D02*
X10016729Y-20416008D01*
X10016729Y-20416008D02*
X10035777Y-20406484D01*
X10178634Y-20406484D02*
X10178634Y-20444579D01*
X10254825Y-20406484D02*
X10254825Y-20444579D01*
X10550063Y-20682674D02*
X10540539Y-20673150D01*
X10540539Y-20673150D02*
X10521491Y-20644579D01*
X10521491Y-20644579D02*
X10511968Y-20625531D01*
X10511968Y-20625531D02*
X10502444Y-20596960D01*
X10502444Y-20596960D02*
X10492920Y-20549341D01*
X10492920Y-20549341D02*
X10492920Y-20511246D01*
X10492920Y-20511246D02*
X10502444Y-20463627D01*
X10502444Y-20463627D02*
X10511968Y-20435055D01*
X10511968Y-20435055D02*
X10521491Y-20416008D01*
X10521491Y-20416008D02*
X10540539Y-20387436D01*
X10540539Y-20387436D02*
X10550063Y-20377912D01*
X10711968Y-20473150D02*
X10711968Y-20606484D01*
X10664349Y-20396960D02*
X10616730Y-20539817D01*
X10616730Y-20539817D02*
X10740539Y-20539817D01*
X10969111Y-20606484D02*
X10969111Y-20406484D01*
X11054825Y-20606484D02*
X11054825Y-20501722D01*
X11054825Y-20501722D02*
X11045301Y-20482674D01*
X11045301Y-20482674D02*
X11026253Y-20473150D01*
X11026253Y-20473150D02*
X10997682Y-20473150D01*
X10997682Y-20473150D02*
X10978634Y-20482674D01*
X10978634Y-20482674D02*
X10969111Y-20492198D01*
X11178634Y-20606484D02*
X11159587Y-20596960D01*
X11159587Y-20596960D02*
X11150063Y-20587436D01*
X11150063Y-20587436D02*
X11140539Y-20568389D01*
X11140539Y-20568389D02*
X11140539Y-20511246D01*
X11140539Y-20511246D02*
X11150063Y-20492198D01*
X11150063Y-20492198D02*
X11159587Y-20482674D01*
X11159587Y-20482674D02*
X11178634Y-20473150D01*
X11178634Y-20473150D02*
X11207206Y-20473150D01*
X11207206Y-20473150D02*
X11226253Y-20482674D01*
X11226253Y-20482674D02*
X11235777Y-20492198D01*
X11235777Y-20492198D02*
X11245301Y-20511246D01*
X11245301Y-20511246D02*
X11245301Y-20568389D01*
X11245301Y-20568389D02*
X11235777Y-20587436D01*
X11235777Y-20587436D02*
X11226253Y-20596960D01*
X11226253Y-20596960D02*
X11207206Y-20606484D01*
X11207206Y-20606484D02*
X11178634Y-20606484D01*
X11359587Y-20606484D02*
X11340539Y-20596960D01*
X11340539Y-20596960D02*
X11331015Y-20577912D01*
X11331015Y-20577912D02*
X11331015Y-20406484D01*
X11511968Y-20596960D02*
X11492920Y-20606484D01*
X11492920Y-20606484D02*
X11454825Y-20606484D01*
X11454825Y-20606484D02*
X11435777Y-20596960D01*
X11435777Y-20596960D02*
X11426253Y-20577912D01*
X11426253Y-20577912D02*
X11426253Y-20501722D01*
X11426253Y-20501722D02*
X11435777Y-20482674D01*
X11435777Y-20482674D02*
X11454825Y-20473150D01*
X11454825Y-20473150D02*
X11492920Y-20473150D01*
X11492920Y-20473150D02*
X11511968Y-20482674D01*
X11511968Y-20482674D02*
X11521491Y-20501722D01*
X11521491Y-20501722D02*
X11521491Y-20520770D01*
X11521491Y-20520770D02*
X11426253Y-20539817D01*
X11597682Y-20596960D02*
X11616730Y-20606484D01*
X11616730Y-20606484D02*
X11654825Y-20606484D01*
X11654825Y-20606484D02*
X11673872Y-20596960D01*
X11673872Y-20596960D02*
X11683396Y-20577912D01*
X11683396Y-20577912D02*
X11683396Y-20568389D01*
X11683396Y-20568389D02*
X11673872Y-20549341D01*
X11673872Y-20549341D02*
X11654825Y-20539817D01*
X11654825Y-20539817D02*
X11626253Y-20539817D01*
X11626253Y-20539817D02*
X11607206Y-20530293D01*
X11607206Y-20530293D02*
X11597682Y-20511246D01*
X11597682Y-20511246D02*
X11597682Y-20501722D01*
X11597682Y-20501722D02*
X11607206Y-20482674D01*
X11607206Y-20482674D02*
X11626253Y-20473150D01*
X11626253Y-20473150D02*
X11654825Y-20473150D01*
X11654825Y-20473150D02*
X11673872Y-20482674D01*
X11750063Y-20682674D02*
X11759587Y-20673150D01*
X11759587Y-20673150D02*
X11778634Y-20644579D01*
X11778634Y-20644579D02*
X11788158Y-20625531D01*
X11788158Y-20625531D02*
X11797682Y-20596960D01*
X11797682Y-20596960D02*
X11807206Y-20549341D01*
X11807206Y-20549341D02*
X11807206Y-20511246D01*
X11807206Y-20511246D02*
X11797682Y-20463627D01*
X11797682Y-20463627D02*
X11788158Y-20435055D01*
X11788158Y-20435055D02*
X11778634Y-20416008D01*
X11778634Y-20416008D02*
X11759587Y-20387436D01*
X11759587Y-20387436D02*
X11750063Y-20377912D01*
X12111968Y-20682674D02*
X12102444Y-20673150D01*
X12102444Y-20673150D02*
X12083396Y-20644579D01*
X12083396Y-20644579D02*
X12073872Y-20625531D01*
X12073872Y-20625531D02*
X12064349Y-20596960D01*
X12064349Y-20596960D02*
X12054825Y-20549341D01*
X12054825Y-20549341D02*
X12054825Y-20511246D01*
X12054825Y-20511246D02*
X12064349Y-20463627D01*
X12064349Y-20463627D02*
X12073872Y-20435055D01*
X12073872Y-20435055D02*
X12083396Y-20416008D01*
X12083396Y-20416008D02*
X12102444Y-20387436D01*
X12102444Y-20387436D02*
X12111968Y-20377912D01*
X12188158Y-20473150D02*
X12188158Y-20606484D01*
X12188158Y-20492198D02*
X12197682Y-20482674D01*
X12197682Y-20482674D02*
X12216730Y-20473150D01*
X12216730Y-20473150D02*
X12245301Y-20473150D01*
X12245301Y-20473150D02*
X12264349Y-20482674D01*
X12264349Y-20482674D02*
X12273872Y-20501722D01*
X12273872Y-20501722D02*
X12273872Y-20606484D01*
X12397682Y-20606484D02*
X12378634Y-20596960D01*
X12378634Y-20596960D02*
X12369111Y-20587436D01*
X12369111Y-20587436D02*
X12359587Y-20568389D01*
X12359587Y-20568389D02*
X12359587Y-20511246D01*
X12359587Y-20511246D02*
X12369111Y-20492198D01*
X12369111Y-20492198D02*
X12378634Y-20482674D01*
X12378634Y-20482674D02*
X12397682Y-20473150D01*
X12397682Y-20473150D02*
X12426253Y-20473150D01*
X12426253Y-20473150D02*
X12445301Y-20482674D01*
X12445301Y-20482674D02*
X12454825Y-20492198D01*
X12454825Y-20492198D02*
X12464349Y-20511246D01*
X12464349Y-20511246D02*
X12464349Y-20568389D01*
X12464349Y-20568389D02*
X12454825Y-20587436D01*
X12454825Y-20587436D02*
X12445301Y-20596960D01*
X12445301Y-20596960D02*
X12426253Y-20606484D01*
X12426253Y-20606484D02*
X12397682Y-20606484D01*
X12521492Y-20473150D02*
X12597682Y-20473150D01*
X12550063Y-20406484D02*
X12550063Y-20577912D01*
X12550063Y-20577912D02*
X12559587Y-20596960D01*
X12559587Y-20596960D02*
X12578634Y-20606484D01*
X12578634Y-20606484D02*
X12597682Y-20606484D01*
X12816730Y-20473150D02*
X12816730Y-20673150D01*
X12816730Y-20482674D02*
X12835777Y-20473150D01*
X12835777Y-20473150D02*
X12873873Y-20473150D01*
X12873873Y-20473150D02*
X12892920Y-20482674D01*
X12892920Y-20482674D02*
X12902444Y-20492198D01*
X12902444Y-20492198D02*
X12911968Y-20511246D01*
X12911968Y-20511246D02*
X12911968Y-20568389D01*
X12911968Y-20568389D02*
X12902444Y-20587436D01*
X12902444Y-20587436D02*
X12892920Y-20596960D01*
X12892920Y-20596960D02*
X12873873Y-20606484D01*
X12873873Y-20606484D02*
X12835777Y-20606484D01*
X12835777Y-20606484D02*
X12816730Y-20596960D01*
X13026253Y-20606484D02*
X13007206Y-20596960D01*
X13007206Y-20596960D02*
X12997682Y-20577912D01*
X12997682Y-20577912D02*
X12997682Y-20406484D01*
X13188158Y-20606484D02*
X13188158Y-20501722D01*
X13188158Y-20501722D02*
X13178634Y-20482674D01*
X13178634Y-20482674D02*
X13159587Y-20473150D01*
X13159587Y-20473150D02*
X13121492Y-20473150D01*
X13121492Y-20473150D02*
X13102444Y-20482674D01*
X13188158Y-20596960D02*
X13169111Y-20606484D01*
X13169111Y-20606484D02*
X13121492Y-20606484D01*
X13121492Y-20606484D02*
X13102444Y-20596960D01*
X13102444Y-20596960D02*
X13092920Y-20577912D01*
X13092920Y-20577912D02*
X13092920Y-20558865D01*
X13092920Y-20558865D02*
X13102444Y-20539817D01*
X13102444Y-20539817D02*
X13121492Y-20530293D01*
X13121492Y-20530293D02*
X13169111Y-20530293D01*
X13169111Y-20530293D02*
X13188158Y-20520770D01*
X13254825Y-20473150D02*
X13331015Y-20473150D01*
X13283396Y-20406484D02*
X13283396Y-20577912D01*
X13283396Y-20577912D02*
X13292920Y-20596960D01*
X13292920Y-20596960D02*
X13311968Y-20606484D01*
X13311968Y-20606484D02*
X13331015Y-20606484D01*
X13473873Y-20596960D02*
X13454825Y-20606484D01*
X13454825Y-20606484D02*
X13416730Y-20606484D01*
X13416730Y-20606484D02*
X13397682Y-20596960D01*
X13397682Y-20596960D02*
X13388158Y-20577912D01*
X13388158Y-20577912D02*
X13388158Y-20501722D01*
X13388158Y-20501722D02*
X13397682Y-20482674D01*
X13397682Y-20482674D02*
X13416730Y-20473150D01*
X13416730Y-20473150D02*
X13454825Y-20473150D01*
X13454825Y-20473150D02*
X13473873Y-20482674D01*
X13473873Y-20482674D02*
X13483396Y-20501722D01*
X13483396Y-20501722D02*
X13483396Y-20520770D01*
X13483396Y-20520770D02*
X13388158Y-20539817D01*
X13654825Y-20606484D02*
X13654825Y-20406484D01*
X13654825Y-20596960D02*
X13635777Y-20606484D01*
X13635777Y-20606484D02*
X13597682Y-20606484D01*
X13597682Y-20606484D02*
X13578634Y-20596960D01*
X13578634Y-20596960D02*
X13569111Y-20587436D01*
X13569111Y-20587436D02*
X13559587Y-20568389D01*
X13559587Y-20568389D02*
X13559587Y-20511246D01*
X13559587Y-20511246D02*
X13569111Y-20492198D01*
X13569111Y-20492198D02*
X13578634Y-20482674D01*
X13578634Y-20482674D02*
X13597682Y-20473150D01*
X13597682Y-20473150D02*
X13635777Y-20473150D01*
X13635777Y-20473150D02*
X13654825Y-20482674D01*
X13731015Y-20682674D02*
X13740539Y-20673150D01*
X13740539Y-20673150D02*
X13759587Y-20644579D01*
X13759587Y-20644579D02*
X13769111Y-20625531D01*
X13769111Y-20625531D02*
X13778634Y-20596960D01*
X13778634Y-20596960D02*
X13788158Y-20549341D01*
X13788158Y-20549341D02*
X13788158Y-20511246D01*
X13788158Y-20511246D02*
X13778634Y-20463627D01*
X13778634Y-20463627D02*
X13769111Y-20435055D01*
X13769111Y-20435055D02*
X13759587Y-20416008D01*
X13759587Y-20416008D02*
X13740539Y-20387436D01*
X13740539Y-20387436D02*
X13731015Y-20377912D01*
X6975000Y-20835000D02*
G75*
G02*
X6775000Y-20835000I-100000J0D01*
G01*
X6775000Y-20835000D02*
G75*
G02*
X6975000Y-20835000I100000J0D01*
G01*
X7216729Y-20726484D02*
X7340539Y-20726484D01*
X7340539Y-20726484D02*
X7273872Y-20802674D01*
X7273872Y-20802674D02*
X7302443Y-20802674D01*
X7302443Y-20802674D02*
X7321491Y-20812198D01*
X7321491Y-20812198D02*
X7331015Y-20821722D01*
X7331015Y-20821722D02*
X7340539Y-20840770D01*
X7340539Y-20840770D02*
X7340539Y-20888389D01*
X7340539Y-20888389D02*
X7331015Y-20907436D01*
X7331015Y-20907436D02*
X7321491Y-20916960D01*
X7321491Y-20916960D02*
X7302443Y-20926484D01*
X7302443Y-20926484D02*
X7245301Y-20926484D01*
X7245301Y-20926484D02*
X7226253Y-20916960D01*
X7226253Y-20916960D02*
X7216729Y-20907436D01*
X7426253Y-20907436D02*
X7435777Y-20916960D01*
X7435777Y-20916960D02*
X7426253Y-20926484D01*
X7426253Y-20926484D02*
X7416729Y-20916960D01*
X7416729Y-20916960D02*
X7426253Y-20907436D01*
X7426253Y-20907436D02*
X7426253Y-20926484D01*
X7511967Y-20745531D02*
X7521491Y-20736008D01*
X7521491Y-20736008D02*
X7540539Y-20726484D01*
X7540539Y-20726484D02*
X7588158Y-20726484D01*
X7588158Y-20726484D02*
X7607205Y-20736008D01*
X7607205Y-20736008D02*
X7616729Y-20745531D01*
X7616729Y-20745531D02*
X7626253Y-20764579D01*
X7626253Y-20764579D02*
X7626253Y-20783627D01*
X7626253Y-20783627D02*
X7616729Y-20812198D01*
X7616729Y-20812198D02*
X7502443Y-20926484D01*
X7502443Y-20926484D02*
X7626253Y-20926484D01*
X7750062Y-20726484D02*
X7769110Y-20726484D01*
X7769110Y-20726484D02*
X7788158Y-20736008D01*
X7788158Y-20736008D02*
X7797682Y-20745531D01*
X7797682Y-20745531D02*
X7807205Y-20764579D01*
X7807205Y-20764579D02*
X7816729Y-20802674D01*
X7816729Y-20802674D02*
X7816729Y-20850293D01*
X7816729Y-20850293D02*
X7807205Y-20888389D01*
X7807205Y-20888389D02*
X7797682Y-20907436D01*
X7797682Y-20907436D02*
X7788158Y-20916960D01*
X7788158Y-20916960D02*
X7769110Y-20926484D01*
X7769110Y-20926484D02*
X7750062Y-20926484D01*
X7750062Y-20926484D02*
X7731015Y-20916960D01*
X7731015Y-20916960D02*
X7721491Y-20907436D01*
X7721491Y-20907436D02*
X7711967Y-20888389D01*
X7711967Y-20888389D02*
X7702443Y-20850293D01*
X7702443Y-20850293D02*
X7702443Y-20802674D01*
X7702443Y-20802674D02*
X7711967Y-20764579D01*
X7711967Y-20764579D02*
X7721491Y-20745531D01*
X7721491Y-20745531D02*
X7731015Y-20736008D01*
X7731015Y-20736008D02*
X7750062Y-20726484D01*
X7940539Y-20726484D02*
X7959586Y-20726484D01*
X7959586Y-20726484D02*
X7978634Y-20736008D01*
X7978634Y-20736008D02*
X7988158Y-20745531D01*
X7988158Y-20745531D02*
X7997682Y-20764579D01*
X7997682Y-20764579D02*
X8007205Y-20802674D01*
X8007205Y-20802674D02*
X8007205Y-20850293D01*
X8007205Y-20850293D02*
X7997682Y-20888389D01*
X7997682Y-20888389D02*
X7988158Y-20907436D01*
X7988158Y-20907436D02*
X7978634Y-20916960D01*
X7978634Y-20916960D02*
X7959586Y-20926484D01*
X7959586Y-20926484D02*
X7940539Y-20926484D01*
X7940539Y-20926484D02*
X7921491Y-20916960D01*
X7921491Y-20916960D02*
X7911967Y-20907436D01*
X7911967Y-20907436D02*
X7902443Y-20888389D01*
X7902443Y-20888389D02*
X7892920Y-20850293D01*
X7892920Y-20850293D02*
X7892920Y-20802674D01*
X7892920Y-20802674D02*
X7902443Y-20764579D01*
X7902443Y-20764579D02*
X7911967Y-20745531D01*
X7911967Y-20745531D02*
X7921491Y-20736008D01*
X7921491Y-20736008D02*
X7940539Y-20726484D01*
X8092920Y-20926484D02*
X8092920Y-20793150D01*
X8092920Y-20812198D02*
X8102443Y-20802674D01*
X8102443Y-20802674D02*
X8121491Y-20793150D01*
X8121491Y-20793150D02*
X8150063Y-20793150D01*
X8150063Y-20793150D02*
X8169110Y-20802674D01*
X8169110Y-20802674D02*
X8178634Y-20821722D01*
X8178634Y-20821722D02*
X8178634Y-20926484D01*
X8178634Y-20821722D02*
X8188158Y-20802674D01*
X8188158Y-20802674D02*
X8207205Y-20793150D01*
X8207205Y-20793150D02*
X8235777Y-20793150D01*
X8235777Y-20793150D02*
X8254824Y-20802674D01*
X8254824Y-20802674D02*
X8264348Y-20821722D01*
X8264348Y-20821722D02*
X8264348Y-20926484D01*
X8359586Y-20926484D02*
X8359586Y-20793150D01*
X8359586Y-20812198D02*
X8369110Y-20802674D01*
X8369110Y-20802674D02*
X8388158Y-20793150D01*
X8388158Y-20793150D02*
X8416729Y-20793150D01*
X8416729Y-20793150D02*
X8435777Y-20802674D01*
X8435777Y-20802674D02*
X8445301Y-20821722D01*
X8445301Y-20821722D02*
X8445301Y-20926484D01*
X8445301Y-20821722D02*
X8454825Y-20802674D01*
X8454825Y-20802674D02*
X8473872Y-20793150D01*
X8473872Y-20793150D02*
X8502444Y-20793150D01*
X8502444Y-20793150D02*
X8521491Y-20802674D01*
X8521491Y-20802674D02*
X8531015Y-20821722D01*
X8531015Y-20821722D02*
X8531015Y-20926484D01*
X8921491Y-20716960D02*
X8750063Y-20974103D01*
X9178634Y-20726484D02*
X9197682Y-20726484D01*
X9197682Y-20726484D02*
X9216729Y-20736008D01*
X9216729Y-20736008D02*
X9226253Y-20745531D01*
X9226253Y-20745531D02*
X9235777Y-20764579D01*
X9235777Y-20764579D02*
X9245301Y-20802674D01*
X9245301Y-20802674D02*
X9245301Y-20850293D01*
X9245301Y-20850293D02*
X9235777Y-20888389D01*
X9235777Y-20888389D02*
X9226253Y-20907436D01*
X9226253Y-20907436D02*
X9216729Y-20916960D01*
X9216729Y-20916960D02*
X9197682Y-20926484D01*
X9197682Y-20926484D02*
X9178634Y-20926484D01*
X9178634Y-20926484D02*
X9159587Y-20916960D01*
X9159587Y-20916960D02*
X9150063Y-20907436D01*
X9150063Y-20907436D02*
X9140539Y-20888389D01*
X9140539Y-20888389D02*
X9131015Y-20850293D01*
X9131015Y-20850293D02*
X9131015Y-20802674D01*
X9131015Y-20802674D02*
X9140539Y-20764579D01*
X9140539Y-20764579D02*
X9150063Y-20745531D01*
X9150063Y-20745531D02*
X9159587Y-20736008D01*
X9159587Y-20736008D02*
X9178634Y-20726484D01*
X9331015Y-20907436D02*
X9340539Y-20916960D01*
X9340539Y-20916960D02*
X9331015Y-20926484D01*
X9331015Y-20926484D02*
X9321491Y-20916960D01*
X9321491Y-20916960D02*
X9331015Y-20907436D01*
X9331015Y-20907436D02*
X9331015Y-20926484D01*
X9531015Y-20926484D02*
X9416729Y-20926484D01*
X9473872Y-20926484D02*
X9473872Y-20726484D01*
X9473872Y-20726484D02*
X9454825Y-20755055D01*
X9454825Y-20755055D02*
X9435777Y-20774103D01*
X9435777Y-20774103D02*
X9416729Y-20783627D01*
X9607206Y-20745531D02*
X9616729Y-20736008D01*
X9616729Y-20736008D02*
X9635777Y-20726484D01*
X9635777Y-20726484D02*
X9683396Y-20726484D01*
X9683396Y-20726484D02*
X9702444Y-20736008D01*
X9702444Y-20736008D02*
X9711968Y-20745531D01*
X9711968Y-20745531D02*
X9721491Y-20764579D01*
X9721491Y-20764579D02*
X9721491Y-20783627D01*
X9721491Y-20783627D02*
X9711968Y-20812198D01*
X9711968Y-20812198D02*
X9597682Y-20926484D01*
X9597682Y-20926484D02*
X9721491Y-20926484D01*
X9892920Y-20726484D02*
X9854825Y-20726484D01*
X9854825Y-20726484D02*
X9835777Y-20736008D01*
X9835777Y-20736008D02*
X9826253Y-20745531D01*
X9826253Y-20745531D02*
X9807206Y-20774103D01*
X9807206Y-20774103D02*
X9797682Y-20812198D01*
X9797682Y-20812198D02*
X9797682Y-20888389D01*
X9797682Y-20888389D02*
X9807206Y-20907436D01*
X9807206Y-20907436D02*
X9816729Y-20916960D01*
X9816729Y-20916960D02*
X9835777Y-20926484D01*
X9835777Y-20926484D02*
X9873872Y-20926484D01*
X9873872Y-20926484D02*
X9892920Y-20916960D01*
X9892920Y-20916960D02*
X9902444Y-20907436D01*
X9902444Y-20907436D02*
X9911968Y-20888389D01*
X9911968Y-20888389D02*
X9911968Y-20840770D01*
X9911968Y-20840770D02*
X9902444Y-20821722D01*
X9902444Y-20821722D02*
X9892920Y-20812198D01*
X9892920Y-20812198D02*
X9873872Y-20802674D01*
X9873872Y-20802674D02*
X9835777Y-20802674D01*
X9835777Y-20802674D02*
X9816729Y-20812198D01*
X9816729Y-20812198D02*
X9807206Y-20821722D01*
X9807206Y-20821722D02*
X9797682Y-20840770D01*
X10035777Y-20726484D02*
X10054825Y-20726484D01*
X10054825Y-20726484D02*
X10073872Y-20736008D01*
X10073872Y-20736008D02*
X10083396Y-20745531D01*
X10083396Y-20745531D02*
X10092920Y-20764579D01*
X10092920Y-20764579D02*
X10102444Y-20802674D01*
X10102444Y-20802674D02*
X10102444Y-20850293D01*
X10102444Y-20850293D02*
X10092920Y-20888389D01*
X10092920Y-20888389D02*
X10083396Y-20907436D01*
X10083396Y-20907436D02*
X10073872Y-20916960D01*
X10073872Y-20916960D02*
X10054825Y-20926484D01*
X10054825Y-20926484D02*
X10035777Y-20926484D01*
X10035777Y-20926484D02*
X10016729Y-20916960D01*
X10016729Y-20916960D02*
X10007206Y-20907436D01*
X10007206Y-20907436D02*
X9997682Y-20888389D01*
X9997682Y-20888389D02*
X9988158Y-20850293D01*
X9988158Y-20850293D02*
X9988158Y-20802674D01*
X9988158Y-20802674D02*
X9997682Y-20764579D01*
X9997682Y-20764579D02*
X10007206Y-20745531D01*
X10007206Y-20745531D02*
X10016729Y-20736008D01*
X10016729Y-20736008D02*
X10035777Y-20726484D01*
X10178634Y-20726484D02*
X10178634Y-20764579D01*
X10254825Y-20726484D02*
X10254825Y-20764579D01*
X10550063Y-21002674D02*
X10540539Y-20993150D01*
X10540539Y-20993150D02*
X10521491Y-20964579D01*
X10521491Y-20964579D02*
X10511968Y-20945531D01*
X10511968Y-20945531D02*
X10502444Y-20916960D01*
X10502444Y-20916960D02*
X10492920Y-20869341D01*
X10492920Y-20869341D02*
X10492920Y-20831246D01*
X10492920Y-20831246D02*
X10502444Y-20783627D01*
X10502444Y-20783627D02*
X10511968Y-20755055D01*
X10511968Y-20755055D02*
X10521491Y-20736008D01*
X10521491Y-20736008D02*
X10540539Y-20707436D01*
X10540539Y-20707436D02*
X10550063Y-20697912D01*
X10607206Y-20726484D02*
X10731015Y-20726484D01*
X10731015Y-20726484D02*
X10664349Y-20802674D01*
X10664349Y-20802674D02*
X10692920Y-20802674D01*
X10692920Y-20802674D02*
X10711968Y-20812198D01*
X10711968Y-20812198D02*
X10721491Y-20821722D01*
X10721491Y-20821722D02*
X10731015Y-20840770D01*
X10731015Y-20840770D02*
X10731015Y-20888389D01*
X10731015Y-20888389D02*
X10721491Y-20907436D01*
X10721491Y-20907436D02*
X10711968Y-20916960D01*
X10711968Y-20916960D02*
X10692920Y-20926484D01*
X10692920Y-20926484D02*
X10635777Y-20926484D01*
X10635777Y-20926484D02*
X10616730Y-20916960D01*
X10616730Y-20916960D02*
X10607206Y-20907436D01*
X10969111Y-20926484D02*
X10969111Y-20726484D01*
X11054825Y-20926484D02*
X11054825Y-20821722D01*
X11054825Y-20821722D02*
X11045301Y-20802674D01*
X11045301Y-20802674D02*
X11026253Y-20793150D01*
X11026253Y-20793150D02*
X10997682Y-20793150D01*
X10997682Y-20793150D02*
X10978634Y-20802674D01*
X10978634Y-20802674D02*
X10969111Y-20812198D01*
X11178634Y-20926484D02*
X11159587Y-20916960D01*
X11159587Y-20916960D02*
X11150063Y-20907436D01*
X11150063Y-20907436D02*
X11140539Y-20888389D01*
X11140539Y-20888389D02*
X11140539Y-20831246D01*
X11140539Y-20831246D02*
X11150063Y-20812198D01*
X11150063Y-20812198D02*
X11159587Y-20802674D01*
X11159587Y-20802674D02*
X11178634Y-20793150D01*
X11178634Y-20793150D02*
X11207206Y-20793150D01*
X11207206Y-20793150D02*
X11226253Y-20802674D01*
X11226253Y-20802674D02*
X11235777Y-20812198D01*
X11235777Y-20812198D02*
X11245301Y-20831246D01*
X11245301Y-20831246D02*
X11245301Y-20888389D01*
X11245301Y-20888389D02*
X11235777Y-20907436D01*
X11235777Y-20907436D02*
X11226253Y-20916960D01*
X11226253Y-20916960D02*
X11207206Y-20926484D01*
X11207206Y-20926484D02*
X11178634Y-20926484D01*
X11359587Y-20926484D02*
X11340539Y-20916960D01*
X11340539Y-20916960D02*
X11331015Y-20897912D01*
X11331015Y-20897912D02*
X11331015Y-20726484D01*
X11511968Y-20916960D02*
X11492920Y-20926484D01*
X11492920Y-20926484D02*
X11454825Y-20926484D01*
X11454825Y-20926484D02*
X11435777Y-20916960D01*
X11435777Y-20916960D02*
X11426253Y-20897912D01*
X11426253Y-20897912D02*
X11426253Y-20821722D01*
X11426253Y-20821722D02*
X11435777Y-20802674D01*
X11435777Y-20802674D02*
X11454825Y-20793150D01*
X11454825Y-20793150D02*
X11492920Y-20793150D01*
X11492920Y-20793150D02*
X11511968Y-20802674D01*
X11511968Y-20802674D02*
X11521491Y-20821722D01*
X11521491Y-20821722D02*
X11521491Y-20840770D01*
X11521491Y-20840770D02*
X11426253Y-20859817D01*
X11597682Y-20916960D02*
X11616730Y-20926484D01*
X11616730Y-20926484D02*
X11654825Y-20926484D01*
X11654825Y-20926484D02*
X11673872Y-20916960D01*
X11673872Y-20916960D02*
X11683396Y-20897912D01*
X11683396Y-20897912D02*
X11683396Y-20888389D01*
X11683396Y-20888389D02*
X11673872Y-20869341D01*
X11673872Y-20869341D02*
X11654825Y-20859817D01*
X11654825Y-20859817D02*
X11626253Y-20859817D01*
X11626253Y-20859817D02*
X11607206Y-20850293D01*
X11607206Y-20850293D02*
X11597682Y-20831246D01*
X11597682Y-20831246D02*
X11597682Y-20821722D01*
X11597682Y-20821722D02*
X11607206Y-20802674D01*
X11607206Y-20802674D02*
X11626253Y-20793150D01*
X11626253Y-20793150D02*
X11654825Y-20793150D01*
X11654825Y-20793150D02*
X11673872Y-20802674D01*
X11750063Y-21002674D02*
X11759587Y-20993150D01*
X11759587Y-20993150D02*
X11778634Y-20964579D01*
X11778634Y-20964579D02*
X11788158Y-20945531D01*
X11788158Y-20945531D02*
X11797682Y-20916960D01*
X11797682Y-20916960D02*
X11807206Y-20869341D01*
X11807206Y-20869341D02*
X11807206Y-20831246D01*
X11807206Y-20831246D02*
X11797682Y-20783627D01*
X11797682Y-20783627D02*
X11788158Y-20755055D01*
X11788158Y-20755055D02*
X11778634Y-20736008D01*
X11778634Y-20736008D02*
X11759587Y-20707436D01*
X11759587Y-20707436D02*
X11750063Y-20697912D01*
X12111968Y-21002674D02*
X12102444Y-20993150D01*
X12102444Y-20993150D02*
X12083396Y-20964579D01*
X12083396Y-20964579D02*
X12073872Y-20945531D01*
X12073872Y-20945531D02*
X12064349Y-20916960D01*
X12064349Y-20916960D02*
X12054825Y-20869341D01*
X12054825Y-20869341D02*
X12054825Y-20831246D01*
X12054825Y-20831246D02*
X12064349Y-20783627D01*
X12064349Y-20783627D02*
X12073872Y-20755055D01*
X12073872Y-20755055D02*
X12083396Y-20736008D01*
X12083396Y-20736008D02*
X12102444Y-20707436D01*
X12102444Y-20707436D02*
X12111968Y-20697912D01*
X12188158Y-20793150D02*
X12188158Y-20926484D01*
X12188158Y-20812198D02*
X12197682Y-20802674D01*
X12197682Y-20802674D02*
X12216730Y-20793150D01*
X12216730Y-20793150D02*
X12245301Y-20793150D01*
X12245301Y-20793150D02*
X12264349Y-20802674D01*
X12264349Y-20802674D02*
X12273872Y-20821722D01*
X12273872Y-20821722D02*
X12273872Y-20926484D01*
X12397682Y-20926484D02*
X12378634Y-20916960D01*
X12378634Y-20916960D02*
X12369111Y-20907436D01*
X12369111Y-20907436D02*
X12359587Y-20888389D01*
X12359587Y-20888389D02*
X12359587Y-20831246D01*
X12359587Y-20831246D02*
X12369111Y-20812198D01*
X12369111Y-20812198D02*
X12378634Y-20802674D01*
X12378634Y-20802674D02*
X12397682Y-20793150D01*
X12397682Y-20793150D02*
X12426253Y-20793150D01*
X12426253Y-20793150D02*
X12445301Y-20802674D01*
X12445301Y-20802674D02*
X12454825Y-20812198D01*
X12454825Y-20812198D02*
X12464349Y-20831246D01*
X12464349Y-20831246D02*
X12464349Y-20888389D01*
X12464349Y-20888389D02*
X12454825Y-20907436D01*
X12454825Y-20907436D02*
X12445301Y-20916960D01*
X12445301Y-20916960D02*
X12426253Y-20926484D01*
X12426253Y-20926484D02*
X12397682Y-20926484D01*
X12521492Y-20793150D02*
X12597682Y-20793150D01*
X12550063Y-20726484D02*
X12550063Y-20897912D01*
X12550063Y-20897912D02*
X12559587Y-20916960D01*
X12559587Y-20916960D02*
X12578634Y-20926484D01*
X12578634Y-20926484D02*
X12597682Y-20926484D01*
X12816730Y-20793150D02*
X12816730Y-20993150D01*
X12816730Y-20802674D02*
X12835777Y-20793150D01*
X12835777Y-20793150D02*
X12873873Y-20793150D01*
X12873873Y-20793150D02*
X12892920Y-20802674D01*
X12892920Y-20802674D02*
X12902444Y-20812198D01*
X12902444Y-20812198D02*
X12911968Y-20831246D01*
X12911968Y-20831246D02*
X12911968Y-20888389D01*
X12911968Y-20888389D02*
X12902444Y-20907436D01*
X12902444Y-20907436D02*
X12892920Y-20916960D01*
X12892920Y-20916960D02*
X12873873Y-20926484D01*
X12873873Y-20926484D02*
X12835777Y-20926484D01*
X12835777Y-20926484D02*
X12816730Y-20916960D01*
X13026253Y-20926484D02*
X13007206Y-20916960D01*
X13007206Y-20916960D02*
X12997682Y-20897912D01*
X12997682Y-20897912D02*
X12997682Y-20726484D01*
X13188158Y-20926484D02*
X13188158Y-20821722D01*
X13188158Y-20821722D02*
X13178634Y-20802674D01*
X13178634Y-20802674D02*
X13159587Y-20793150D01*
X13159587Y-20793150D02*
X13121492Y-20793150D01*
X13121492Y-20793150D02*
X13102444Y-20802674D01*
X13188158Y-20916960D02*
X13169111Y-20926484D01*
X13169111Y-20926484D02*
X13121492Y-20926484D01*
X13121492Y-20926484D02*
X13102444Y-20916960D01*
X13102444Y-20916960D02*
X13092920Y-20897912D01*
X13092920Y-20897912D02*
X13092920Y-20878865D01*
X13092920Y-20878865D02*
X13102444Y-20859817D01*
X13102444Y-20859817D02*
X13121492Y-20850293D01*
X13121492Y-20850293D02*
X13169111Y-20850293D01*
X13169111Y-20850293D02*
X13188158Y-20840770D01*
X13254825Y-20793150D02*
X13331015Y-20793150D01*
X13283396Y-20726484D02*
X13283396Y-20897912D01*
X13283396Y-20897912D02*
X13292920Y-20916960D01*
X13292920Y-20916960D02*
X13311968Y-20926484D01*
X13311968Y-20926484D02*
X13331015Y-20926484D01*
X13473873Y-20916960D02*
X13454825Y-20926484D01*
X13454825Y-20926484D02*
X13416730Y-20926484D01*
X13416730Y-20926484D02*
X13397682Y-20916960D01*
X13397682Y-20916960D02*
X13388158Y-20897912D01*
X13388158Y-20897912D02*
X13388158Y-20821722D01*
X13388158Y-20821722D02*
X13397682Y-20802674D01*
X13397682Y-20802674D02*
X13416730Y-20793150D01*
X13416730Y-20793150D02*
X13454825Y-20793150D01*
X13454825Y-20793150D02*
X13473873Y-20802674D01*
X13473873Y-20802674D02*
X13483396Y-20821722D01*
X13483396Y-20821722D02*
X13483396Y-20840770D01*
X13483396Y-20840770D02*
X13388158Y-20859817D01*
X13654825Y-20926484D02*
X13654825Y-20726484D01*
X13654825Y-20916960D02*
X13635777Y-20926484D01*
X13635777Y-20926484D02*
X13597682Y-20926484D01*
X13597682Y-20926484D02*
X13578634Y-20916960D01*
X13578634Y-20916960D02*
X13569111Y-20907436D01*
X13569111Y-20907436D02*
X13559587Y-20888389D01*
X13559587Y-20888389D02*
X13559587Y-20831246D01*
X13559587Y-20831246D02*
X13569111Y-20812198D01*
X13569111Y-20812198D02*
X13578634Y-20802674D01*
X13578634Y-20802674D02*
X13597682Y-20793150D01*
X13597682Y-20793150D02*
X13635777Y-20793150D01*
X13635777Y-20793150D02*
X13654825Y-20802674D01*
X13731015Y-21002674D02*
X13740539Y-20993150D01*
X13740539Y-20993150D02*
X13759587Y-20964579D01*
X13759587Y-20964579D02*
X13769111Y-20945531D01*
X13769111Y-20945531D02*
X13778634Y-20916960D01*
X13778634Y-20916960D02*
X13788158Y-20869341D01*
X13788158Y-20869341D02*
X13788158Y-20831246D01*
X13788158Y-20831246D02*
X13778634Y-20783627D01*
X13778634Y-20783627D02*
X13769111Y-20755055D01*
X13769111Y-20755055D02*
X13759587Y-20736008D01*
X13759587Y-20736008D02*
X13740539Y-20707436D01*
X13740539Y-20707436D02*
X13731015Y-20697912D01*
X6875000Y-21055000D02*
X6875000Y-21255000D01*
X6775000Y-21155000D02*
X6975000Y-21155000D01*
X7321491Y-21113150D02*
X7321491Y-21246484D01*
X7273872Y-21036960D02*
X7226253Y-21179817D01*
X7226253Y-21179817D02*
X7350062Y-21179817D01*
X7426253Y-21227436D02*
X7435777Y-21236960D01*
X7435777Y-21236960D02*
X7426253Y-21246484D01*
X7426253Y-21246484D02*
X7416729Y-21236960D01*
X7416729Y-21236960D02*
X7426253Y-21227436D01*
X7426253Y-21227436D02*
X7426253Y-21246484D01*
X7559586Y-21046484D02*
X7578634Y-21046484D01*
X7578634Y-21046484D02*
X7597682Y-21056008D01*
X7597682Y-21056008D02*
X7607205Y-21065531D01*
X7607205Y-21065531D02*
X7616729Y-21084579D01*
X7616729Y-21084579D02*
X7626253Y-21122674D01*
X7626253Y-21122674D02*
X7626253Y-21170293D01*
X7626253Y-21170293D02*
X7616729Y-21208389D01*
X7616729Y-21208389D02*
X7607205Y-21227436D01*
X7607205Y-21227436D02*
X7597682Y-21236960D01*
X7597682Y-21236960D02*
X7578634Y-21246484D01*
X7578634Y-21246484D02*
X7559586Y-21246484D01*
X7559586Y-21246484D02*
X7540539Y-21236960D01*
X7540539Y-21236960D02*
X7531015Y-21227436D01*
X7531015Y-21227436D02*
X7521491Y-21208389D01*
X7521491Y-21208389D02*
X7511967Y-21170293D01*
X7511967Y-21170293D02*
X7511967Y-21122674D01*
X7511967Y-21122674D02*
X7521491Y-21084579D01*
X7521491Y-21084579D02*
X7531015Y-21065531D01*
X7531015Y-21065531D02*
X7540539Y-21056008D01*
X7540539Y-21056008D02*
X7559586Y-21046484D01*
X7692920Y-21046484D02*
X7816729Y-21046484D01*
X7816729Y-21046484D02*
X7750062Y-21122674D01*
X7750062Y-21122674D02*
X7778634Y-21122674D01*
X7778634Y-21122674D02*
X7797682Y-21132198D01*
X7797682Y-21132198D02*
X7807205Y-21141722D01*
X7807205Y-21141722D02*
X7816729Y-21160770D01*
X7816729Y-21160770D02*
X7816729Y-21208389D01*
X7816729Y-21208389D02*
X7807205Y-21227436D01*
X7807205Y-21227436D02*
X7797682Y-21236960D01*
X7797682Y-21236960D02*
X7778634Y-21246484D01*
X7778634Y-21246484D02*
X7721491Y-21246484D01*
X7721491Y-21246484D02*
X7702443Y-21236960D01*
X7702443Y-21236960D02*
X7692920Y-21227436D01*
X7911967Y-21246484D02*
X7950062Y-21246484D01*
X7950062Y-21246484D02*
X7969110Y-21236960D01*
X7969110Y-21236960D02*
X7978634Y-21227436D01*
X7978634Y-21227436D02*
X7997682Y-21198865D01*
X7997682Y-21198865D02*
X8007205Y-21160770D01*
X8007205Y-21160770D02*
X8007205Y-21084579D01*
X8007205Y-21084579D02*
X7997682Y-21065531D01*
X7997682Y-21065531D02*
X7988158Y-21056008D01*
X7988158Y-21056008D02*
X7969110Y-21046484D01*
X7969110Y-21046484D02*
X7931015Y-21046484D01*
X7931015Y-21046484D02*
X7911967Y-21056008D01*
X7911967Y-21056008D02*
X7902443Y-21065531D01*
X7902443Y-21065531D02*
X7892920Y-21084579D01*
X7892920Y-21084579D02*
X7892920Y-21132198D01*
X7892920Y-21132198D02*
X7902443Y-21151246D01*
X7902443Y-21151246D02*
X7911967Y-21160770D01*
X7911967Y-21160770D02*
X7931015Y-21170293D01*
X7931015Y-21170293D02*
X7969110Y-21170293D01*
X7969110Y-21170293D02*
X7988158Y-21160770D01*
X7988158Y-21160770D02*
X7997682Y-21151246D01*
X7997682Y-21151246D02*
X8007205Y-21132198D01*
X8092920Y-21246484D02*
X8092920Y-21113150D01*
X8092920Y-21132198D02*
X8102443Y-21122674D01*
X8102443Y-21122674D02*
X8121491Y-21113150D01*
X8121491Y-21113150D02*
X8150063Y-21113150D01*
X8150063Y-21113150D02*
X8169110Y-21122674D01*
X8169110Y-21122674D02*
X8178634Y-21141722D01*
X8178634Y-21141722D02*
X8178634Y-21246484D01*
X8178634Y-21141722D02*
X8188158Y-21122674D01*
X8188158Y-21122674D02*
X8207205Y-21113150D01*
X8207205Y-21113150D02*
X8235777Y-21113150D01*
X8235777Y-21113150D02*
X8254824Y-21122674D01*
X8254824Y-21122674D02*
X8264348Y-21141722D01*
X8264348Y-21141722D02*
X8264348Y-21246484D01*
X8359586Y-21246484D02*
X8359586Y-21113150D01*
X8359586Y-21132198D02*
X8369110Y-21122674D01*
X8369110Y-21122674D02*
X8388158Y-21113150D01*
X8388158Y-21113150D02*
X8416729Y-21113150D01*
X8416729Y-21113150D02*
X8435777Y-21122674D01*
X8435777Y-21122674D02*
X8445301Y-21141722D01*
X8445301Y-21141722D02*
X8445301Y-21246484D01*
X8445301Y-21141722D02*
X8454825Y-21122674D01*
X8454825Y-21122674D02*
X8473872Y-21113150D01*
X8473872Y-21113150D02*
X8502444Y-21113150D01*
X8502444Y-21113150D02*
X8521491Y-21122674D01*
X8521491Y-21122674D02*
X8531015Y-21141722D01*
X8531015Y-21141722D02*
X8531015Y-21246484D01*
X8921491Y-21036960D02*
X8750063Y-21294103D01*
X9178634Y-21046484D02*
X9197682Y-21046484D01*
X9197682Y-21046484D02*
X9216729Y-21056008D01*
X9216729Y-21056008D02*
X9226253Y-21065531D01*
X9226253Y-21065531D02*
X9235777Y-21084579D01*
X9235777Y-21084579D02*
X9245301Y-21122674D01*
X9245301Y-21122674D02*
X9245301Y-21170293D01*
X9245301Y-21170293D02*
X9235777Y-21208389D01*
X9235777Y-21208389D02*
X9226253Y-21227436D01*
X9226253Y-21227436D02*
X9216729Y-21236960D01*
X9216729Y-21236960D02*
X9197682Y-21246484D01*
X9197682Y-21246484D02*
X9178634Y-21246484D01*
X9178634Y-21246484D02*
X9159587Y-21236960D01*
X9159587Y-21236960D02*
X9150063Y-21227436D01*
X9150063Y-21227436D02*
X9140539Y-21208389D01*
X9140539Y-21208389D02*
X9131015Y-21170293D01*
X9131015Y-21170293D02*
X9131015Y-21122674D01*
X9131015Y-21122674D02*
X9140539Y-21084579D01*
X9140539Y-21084579D02*
X9150063Y-21065531D01*
X9150063Y-21065531D02*
X9159587Y-21056008D01*
X9159587Y-21056008D02*
X9178634Y-21046484D01*
X9331015Y-21227436D02*
X9340539Y-21236960D01*
X9340539Y-21236960D02*
X9331015Y-21246484D01*
X9331015Y-21246484D02*
X9321491Y-21236960D01*
X9321491Y-21236960D02*
X9331015Y-21227436D01*
X9331015Y-21227436D02*
X9331015Y-21246484D01*
X9531015Y-21246484D02*
X9416729Y-21246484D01*
X9473872Y-21246484D02*
X9473872Y-21046484D01*
X9473872Y-21046484D02*
X9454825Y-21075055D01*
X9454825Y-21075055D02*
X9435777Y-21094103D01*
X9435777Y-21094103D02*
X9416729Y-21103627D01*
X9711968Y-21046484D02*
X9616729Y-21046484D01*
X9616729Y-21046484D02*
X9607206Y-21141722D01*
X9607206Y-21141722D02*
X9616729Y-21132198D01*
X9616729Y-21132198D02*
X9635777Y-21122674D01*
X9635777Y-21122674D02*
X9683396Y-21122674D01*
X9683396Y-21122674D02*
X9702444Y-21132198D01*
X9702444Y-21132198D02*
X9711968Y-21141722D01*
X9711968Y-21141722D02*
X9721491Y-21160770D01*
X9721491Y-21160770D02*
X9721491Y-21208389D01*
X9721491Y-21208389D02*
X9711968Y-21227436D01*
X9711968Y-21227436D02*
X9702444Y-21236960D01*
X9702444Y-21236960D02*
X9683396Y-21246484D01*
X9683396Y-21246484D02*
X9635777Y-21246484D01*
X9635777Y-21246484D02*
X9616729Y-21236960D01*
X9616729Y-21236960D02*
X9607206Y-21227436D01*
X9816729Y-21246484D02*
X9854825Y-21246484D01*
X9854825Y-21246484D02*
X9873872Y-21236960D01*
X9873872Y-21236960D02*
X9883396Y-21227436D01*
X9883396Y-21227436D02*
X9902444Y-21198865D01*
X9902444Y-21198865D02*
X9911968Y-21160770D01*
X9911968Y-21160770D02*
X9911968Y-21084579D01*
X9911968Y-21084579D02*
X9902444Y-21065531D01*
X9902444Y-21065531D02*
X9892920Y-21056008D01*
X9892920Y-21056008D02*
X9873872Y-21046484D01*
X9873872Y-21046484D02*
X9835777Y-21046484D01*
X9835777Y-21046484D02*
X9816729Y-21056008D01*
X9816729Y-21056008D02*
X9807206Y-21065531D01*
X9807206Y-21065531D02*
X9797682Y-21084579D01*
X9797682Y-21084579D02*
X9797682Y-21132198D01*
X9797682Y-21132198D02*
X9807206Y-21151246D01*
X9807206Y-21151246D02*
X9816729Y-21160770D01*
X9816729Y-21160770D02*
X9835777Y-21170293D01*
X9835777Y-21170293D02*
X9873872Y-21170293D01*
X9873872Y-21170293D02*
X9892920Y-21160770D01*
X9892920Y-21160770D02*
X9902444Y-21151246D01*
X9902444Y-21151246D02*
X9911968Y-21132198D01*
X10035777Y-21046484D02*
X10054825Y-21046484D01*
X10054825Y-21046484D02*
X10073872Y-21056008D01*
X10073872Y-21056008D02*
X10083396Y-21065531D01*
X10083396Y-21065531D02*
X10092920Y-21084579D01*
X10092920Y-21084579D02*
X10102444Y-21122674D01*
X10102444Y-21122674D02*
X10102444Y-21170293D01*
X10102444Y-21170293D02*
X10092920Y-21208389D01*
X10092920Y-21208389D02*
X10083396Y-21227436D01*
X10083396Y-21227436D02*
X10073872Y-21236960D01*
X10073872Y-21236960D02*
X10054825Y-21246484D01*
X10054825Y-21246484D02*
X10035777Y-21246484D01*
X10035777Y-21246484D02*
X10016729Y-21236960D01*
X10016729Y-21236960D02*
X10007206Y-21227436D01*
X10007206Y-21227436D02*
X9997682Y-21208389D01*
X9997682Y-21208389D02*
X9988158Y-21170293D01*
X9988158Y-21170293D02*
X9988158Y-21122674D01*
X9988158Y-21122674D02*
X9997682Y-21084579D01*
X9997682Y-21084579D02*
X10007206Y-21065531D01*
X10007206Y-21065531D02*
X10016729Y-21056008D01*
X10016729Y-21056008D02*
X10035777Y-21046484D01*
X10178634Y-21046484D02*
X10178634Y-21084579D01*
X10254825Y-21046484D02*
X10254825Y-21084579D01*
X10550063Y-21322674D02*
X10540539Y-21313150D01*
X10540539Y-21313150D02*
X10521491Y-21284579D01*
X10521491Y-21284579D02*
X10511968Y-21265531D01*
X10511968Y-21265531D02*
X10502444Y-21236960D01*
X10502444Y-21236960D02*
X10492920Y-21189341D01*
X10492920Y-21189341D02*
X10492920Y-21151246D01*
X10492920Y-21151246D02*
X10502444Y-21103627D01*
X10502444Y-21103627D02*
X10511968Y-21075055D01*
X10511968Y-21075055D02*
X10521491Y-21056008D01*
X10521491Y-21056008D02*
X10540539Y-21027436D01*
X10540539Y-21027436D02*
X10550063Y-21017912D01*
X10711968Y-21113150D02*
X10711968Y-21246484D01*
X10664349Y-21036960D02*
X10616730Y-21179817D01*
X10616730Y-21179817D02*
X10740539Y-21179817D01*
X10969111Y-21246484D02*
X10969111Y-21046484D01*
X11054825Y-21246484D02*
X11054825Y-21141722D01*
X11054825Y-21141722D02*
X11045301Y-21122674D01*
X11045301Y-21122674D02*
X11026253Y-21113150D01*
X11026253Y-21113150D02*
X10997682Y-21113150D01*
X10997682Y-21113150D02*
X10978634Y-21122674D01*
X10978634Y-21122674D02*
X10969111Y-21132198D01*
X11178634Y-21246484D02*
X11159587Y-21236960D01*
X11159587Y-21236960D02*
X11150063Y-21227436D01*
X11150063Y-21227436D02*
X11140539Y-21208389D01*
X11140539Y-21208389D02*
X11140539Y-21151246D01*
X11140539Y-21151246D02*
X11150063Y-21132198D01*
X11150063Y-21132198D02*
X11159587Y-21122674D01*
X11159587Y-21122674D02*
X11178634Y-21113150D01*
X11178634Y-21113150D02*
X11207206Y-21113150D01*
X11207206Y-21113150D02*
X11226253Y-21122674D01*
X11226253Y-21122674D02*
X11235777Y-21132198D01*
X11235777Y-21132198D02*
X11245301Y-21151246D01*
X11245301Y-21151246D02*
X11245301Y-21208389D01*
X11245301Y-21208389D02*
X11235777Y-21227436D01*
X11235777Y-21227436D02*
X11226253Y-21236960D01*
X11226253Y-21236960D02*
X11207206Y-21246484D01*
X11207206Y-21246484D02*
X11178634Y-21246484D01*
X11359587Y-21246484D02*
X11340539Y-21236960D01*
X11340539Y-21236960D02*
X11331015Y-21217912D01*
X11331015Y-21217912D02*
X11331015Y-21046484D01*
X11511968Y-21236960D02*
X11492920Y-21246484D01*
X11492920Y-21246484D02*
X11454825Y-21246484D01*
X11454825Y-21246484D02*
X11435777Y-21236960D01*
X11435777Y-21236960D02*
X11426253Y-21217912D01*
X11426253Y-21217912D02*
X11426253Y-21141722D01*
X11426253Y-21141722D02*
X11435777Y-21122674D01*
X11435777Y-21122674D02*
X11454825Y-21113150D01*
X11454825Y-21113150D02*
X11492920Y-21113150D01*
X11492920Y-21113150D02*
X11511968Y-21122674D01*
X11511968Y-21122674D02*
X11521491Y-21141722D01*
X11521491Y-21141722D02*
X11521491Y-21160770D01*
X11521491Y-21160770D02*
X11426253Y-21179817D01*
X11597682Y-21236960D02*
X11616730Y-21246484D01*
X11616730Y-21246484D02*
X11654825Y-21246484D01*
X11654825Y-21246484D02*
X11673872Y-21236960D01*
X11673872Y-21236960D02*
X11683396Y-21217912D01*
X11683396Y-21217912D02*
X11683396Y-21208389D01*
X11683396Y-21208389D02*
X11673872Y-21189341D01*
X11673872Y-21189341D02*
X11654825Y-21179817D01*
X11654825Y-21179817D02*
X11626253Y-21179817D01*
X11626253Y-21179817D02*
X11607206Y-21170293D01*
X11607206Y-21170293D02*
X11597682Y-21151246D01*
X11597682Y-21151246D02*
X11597682Y-21141722D01*
X11597682Y-21141722D02*
X11607206Y-21122674D01*
X11607206Y-21122674D02*
X11626253Y-21113150D01*
X11626253Y-21113150D02*
X11654825Y-21113150D01*
X11654825Y-21113150D02*
X11673872Y-21122674D01*
X11750063Y-21322674D02*
X11759587Y-21313150D01*
X11759587Y-21313150D02*
X11778634Y-21284579D01*
X11778634Y-21284579D02*
X11788158Y-21265531D01*
X11788158Y-21265531D02*
X11797682Y-21236960D01*
X11797682Y-21236960D02*
X11807206Y-21189341D01*
X11807206Y-21189341D02*
X11807206Y-21151246D01*
X11807206Y-21151246D02*
X11797682Y-21103627D01*
X11797682Y-21103627D02*
X11788158Y-21075055D01*
X11788158Y-21075055D02*
X11778634Y-21056008D01*
X11778634Y-21056008D02*
X11759587Y-21027436D01*
X11759587Y-21027436D02*
X11750063Y-21017912D01*
X12111968Y-21322674D02*
X12102444Y-21313150D01*
X12102444Y-21313150D02*
X12083396Y-21284579D01*
X12083396Y-21284579D02*
X12073872Y-21265531D01*
X12073872Y-21265531D02*
X12064349Y-21236960D01*
X12064349Y-21236960D02*
X12054825Y-21189341D01*
X12054825Y-21189341D02*
X12054825Y-21151246D01*
X12054825Y-21151246D02*
X12064349Y-21103627D01*
X12064349Y-21103627D02*
X12073872Y-21075055D01*
X12073872Y-21075055D02*
X12083396Y-21056008D01*
X12083396Y-21056008D02*
X12102444Y-21027436D01*
X12102444Y-21027436D02*
X12111968Y-21017912D01*
X12188158Y-21113150D02*
X12188158Y-21246484D01*
X12188158Y-21132198D02*
X12197682Y-21122674D01*
X12197682Y-21122674D02*
X12216730Y-21113150D01*
X12216730Y-21113150D02*
X12245301Y-21113150D01*
X12245301Y-21113150D02*
X12264349Y-21122674D01*
X12264349Y-21122674D02*
X12273872Y-21141722D01*
X12273872Y-21141722D02*
X12273872Y-21246484D01*
X12397682Y-21246484D02*
X12378634Y-21236960D01*
X12378634Y-21236960D02*
X12369111Y-21227436D01*
X12369111Y-21227436D02*
X12359587Y-21208389D01*
X12359587Y-21208389D02*
X12359587Y-21151246D01*
X12359587Y-21151246D02*
X12369111Y-21132198D01*
X12369111Y-21132198D02*
X12378634Y-21122674D01*
X12378634Y-21122674D02*
X12397682Y-21113150D01*
X12397682Y-21113150D02*
X12426253Y-21113150D01*
X12426253Y-21113150D02*
X12445301Y-21122674D01*
X12445301Y-21122674D02*
X12454825Y-21132198D01*
X12454825Y-21132198D02*
X12464349Y-21151246D01*
X12464349Y-21151246D02*
X12464349Y-21208389D01*
X12464349Y-21208389D02*
X12454825Y-21227436D01*
X12454825Y-21227436D02*
X12445301Y-21236960D01*
X12445301Y-21236960D02*
X12426253Y-21246484D01*
X12426253Y-21246484D02*
X12397682Y-21246484D01*
X12521492Y-21113150D02*
X12597682Y-21113150D01*
X12550063Y-21046484D02*
X12550063Y-21217912D01*
X12550063Y-21217912D02*
X12559587Y-21236960D01*
X12559587Y-21236960D02*
X12578634Y-21246484D01*
X12578634Y-21246484D02*
X12597682Y-21246484D01*
X12816730Y-21113150D02*
X12816730Y-21313150D01*
X12816730Y-21122674D02*
X12835777Y-21113150D01*
X12835777Y-21113150D02*
X12873873Y-21113150D01*
X12873873Y-21113150D02*
X12892920Y-21122674D01*
X12892920Y-21122674D02*
X12902444Y-21132198D01*
X12902444Y-21132198D02*
X12911968Y-21151246D01*
X12911968Y-21151246D02*
X12911968Y-21208389D01*
X12911968Y-21208389D02*
X12902444Y-21227436D01*
X12902444Y-21227436D02*
X12892920Y-21236960D01*
X12892920Y-21236960D02*
X12873873Y-21246484D01*
X12873873Y-21246484D02*
X12835777Y-21246484D01*
X12835777Y-21246484D02*
X12816730Y-21236960D01*
X13026253Y-21246484D02*
X13007206Y-21236960D01*
X13007206Y-21236960D02*
X12997682Y-21217912D01*
X12997682Y-21217912D02*
X12997682Y-21046484D01*
X13188158Y-21246484D02*
X13188158Y-21141722D01*
X13188158Y-21141722D02*
X13178634Y-21122674D01*
X13178634Y-21122674D02*
X13159587Y-21113150D01*
X13159587Y-21113150D02*
X13121492Y-21113150D01*
X13121492Y-21113150D02*
X13102444Y-21122674D01*
X13188158Y-21236960D02*
X13169111Y-21246484D01*
X13169111Y-21246484D02*
X13121492Y-21246484D01*
X13121492Y-21246484D02*
X13102444Y-21236960D01*
X13102444Y-21236960D02*
X13092920Y-21217912D01*
X13092920Y-21217912D02*
X13092920Y-21198865D01*
X13092920Y-21198865D02*
X13102444Y-21179817D01*
X13102444Y-21179817D02*
X13121492Y-21170293D01*
X13121492Y-21170293D02*
X13169111Y-21170293D01*
X13169111Y-21170293D02*
X13188158Y-21160770D01*
X13254825Y-21113150D02*
X13331015Y-21113150D01*
X13283396Y-21046484D02*
X13283396Y-21217912D01*
X13283396Y-21217912D02*
X13292920Y-21236960D01*
X13292920Y-21236960D02*
X13311968Y-21246484D01*
X13311968Y-21246484D02*
X13331015Y-21246484D01*
X13473873Y-21236960D02*
X13454825Y-21246484D01*
X13454825Y-21246484D02*
X13416730Y-21246484D01*
X13416730Y-21246484D02*
X13397682Y-21236960D01*
X13397682Y-21236960D02*
X13388158Y-21217912D01*
X13388158Y-21217912D02*
X13388158Y-21141722D01*
X13388158Y-21141722D02*
X13397682Y-21122674D01*
X13397682Y-21122674D02*
X13416730Y-21113150D01*
X13416730Y-21113150D02*
X13454825Y-21113150D01*
X13454825Y-21113150D02*
X13473873Y-21122674D01*
X13473873Y-21122674D02*
X13483396Y-21141722D01*
X13483396Y-21141722D02*
X13483396Y-21160770D01*
X13483396Y-21160770D02*
X13388158Y-21179817D01*
X13654825Y-21246484D02*
X13654825Y-21046484D01*
X13654825Y-21236960D02*
X13635777Y-21246484D01*
X13635777Y-21246484D02*
X13597682Y-21246484D01*
X13597682Y-21246484D02*
X13578634Y-21236960D01*
X13578634Y-21236960D02*
X13569111Y-21227436D01*
X13569111Y-21227436D02*
X13559587Y-21208389D01*
X13559587Y-21208389D02*
X13559587Y-21151246D01*
X13559587Y-21151246D02*
X13569111Y-21132198D01*
X13569111Y-21132198D02*
X13578634Y-21122674D01*
X13578634Y-21122674D02*
X13597682Y-21113150D01*
X13597682Y-21113150D02*
X13635777Y-21113150D01*
X13635777Y-21113150D02*
X13654825Y-21122674D01*
X13731015Y-21322674D02*
X13740539Y-21313150D01*
X13740539Y-21313150D02*
X13759587Y-21284579D01*
X13759587Y-21284579D02*
X13769111Y-21265531D01*
X13769111Y-21265531D02*
X13778634Y-21236960D01*
X13778634Y-21236960D02*
X13788158Y-21189341D01*
X13788158Y-21189341D02*
X13788158Y-21151246D01*
X13788158Y-21151246D02*
X13778634Y-21103627D01*
X13778634Y-21103627D02*
X13769111Y-21075055D01*
X13769111Y-21075055D02*
X13759587Y-21056008D01*
X13759587Y-21056008D02*
X13740539Y-21027436D01*
X13740539Y-21027436D02*
X13731015Y-21017912D01*
X6945711Y-21545711D02*
X6945711Y-21404289D01*
X6804289Y-21404289D01*
X6804289Y-21545711D01*
X6945711Y-21545711D01*
X7321491Y-21433150D02*
X7321491Y-21566484D01*
X7273872Y-21356960D02*
X7226253Y-21499817D01*
X7226253Y-21499817D02*
X7350062Y-21499817D01*
X7426253Y-21547436D02*
X7435777Y-21556960D01*
X7435777Y-21556960D02*
X7426253Y-21566484D01*
X7426253Y-21566484D02*
X7416729Y-21556960D01*
X7416729Y-21556960D02*
X7426253Y-21547436D01*
X7426253Y-21547436D02*
X7426253Y-21566484D01*
X7616729Y-21366484D02*
X7521491Y-21366484D01*
X7521491Y-21366484D02*
X7511967Y-21461722D01*
X7511967Y-21461722D02*
X7521491Y-21452198D01*
X7521491Y-21452198D02*
X7540539Y-21442674D01*
X7540539Y-21442674D02*
X7588158Y-21442674D01*
X7588158Y-21442674D02*
X7607205Y-21452198D01*
X7607205Y-21452198D02*
X7616729Y-21461722D01*
X7616729Y-21461722D02*
X7626253Y-21480770D01*
X7626253Y-21480770D02*
X7626253Y-21528389D01*
X7626253Y-21528389D02*
X7616729Y-21547436D01*
X7616729Y-21547436D02*
X7607205Y-21556960D01*
X7607205Y-21556960D02*
X7588158Y-21566484D01*
X7588158Y-21566484D02*
X7540539Y-21566484D01*
X7540539Y-21566484D02*
X7521491Y-21556960D01*
X7521491Y-21556960D02*
X7511967Y-21547436D01*
X7750062Y-21366484D02*
X7769110Y-21366484D01*
X7769110Y-21366484D02*
X7788158Y-21376008D01*
X7788158Y-21376008D02*
X7797682Y-21385531D01*
X7797682Y-21385531D02*
X7807205Y-21404579D01*
X7807205Y-21404579D02*
X7816729Y-21442674D01*
X7816729Y-21442674D02*
X7816729Y-21490293D01*
X7816729Y-21490293D02*
X7807205Y-21528389D01*
X7807205Y-21528389D02*
X7797682Y-21547436D01*
X7797682Y-21547436D02*
X7788158Y-21556960D01*
X7788158Y-21556960D02*
X7769110Y-21566484D01*
X7769110Y-21566484D02*
X7750062Y-21566484D01*
X7750062Y-21566484D02*
X7731015Y-21556960D01*
X7731015Y-21556960D02*
X7721491Y-21547436D01*
X7721491Y-21547436D02*
X7711967Y-21528389D01*
X7711967Y-21528389D02*
X7702443Y-21490293D01*
X7702443Y-21490293D02*
X7702443Y-21442674D01*
X7702443Y-21442674D02*
X7711967Y-21404579D01*
X7711967Y-21404579D02*
X7721491Y-21385531D01*
X7721491Y-21385531D02*
X7731015Y-21376008D01*
X7731015Y-21376008D02*
X7750062Y-21366484D01*
X7940539Y-21366484D02*
X7959586Y-21366484D01*
X7959586Y-21366484D02*
X7978634Y-21376008D01*
X7978634Y-21376008D02*
X7988158Y-21385531D01*
X7988158Y-21385531D02*
X7997682Y-21404579D01*
X7997682Y-21404579D02*
X8007205Y-21442674D01*
X8007205Y-21442674D02*
X8007205Y-21490293D01*
X8007205Y-21490293D02*
X7997682Y-21528389D01*
X7997682Y-21528389D02*
X7988158Y-21547436D01*
X7988158Y-21547436D02*
X7978634Y-21556960D01*
X7978634Y-21556960D02*
X7959586Y-21566484D01*
X7959586Y-21566484D02*
X7940539Y-21566484D01*
X7940539Y-21566484D02*
X7921491Y-21556960D01*
X7921491Y-21556960D02*
X7911967Y-21547436D01*
X7911967Y-21547436D02*
X7902443Y-21528389D01*
X7902443Y-21528389D02*
X7892920Y-21490293D01*
X7892920Y-21490293D02*
X7892920Y-21442674D01*
X7892920Y-21442674D02*
X7902443Y-21404579D01*
X7902443Y-21404579D02*
X7911967Y-21385531D01*
X7911967Y-21385531D02*
X7921491Y-21376008D01*
X7921491Y-21376008D02*
X7940539Y-21366484D01*
X8092920Y-21566484D02*
X8092920Y-21433150D01*
X8092920Y-21452198D02*
X8102443Y-21442674D01*
X8102443Y-21442674D02*
X8121491Y-21433150D01*
X8121491Y-21433150D02*
X8150063Y-21433150D01*
X8150063Y-21433150D02*
X8169110Y-21442674D01*
X8169110Y-21442674D02*
X8178634Y-21461722D01*
X8178634Y-21461722D02*
X8178634Y-21566484D01*
X8178634Y-21461722D02*
X8188158Y-21442674D01*
X8188158Y-21442674D02*
X8207205Y-21433150D01*
X8207205Y-21433150D02*
X8235777Y-21433150D01*
X8235777Y-21433150D02*
X8254824Y-21442674D01*
X8254824Y-21442674D02*
X8264348Y-21461722D01*
X8264348Y-21461722D02*
X8264348Y-21566484D01*
X8359586Y-21566484D02*
X8359586Y-21433150D01*
X8359586Y-21452198D02*
X8369110Y-21442674D01*
X8369110Y-21442674D02*
X8388158Y-21433150D01*
X8388158Y-21433150D02*
X8416729Y-21433150D01*
X8416729Y-21433150D02*
X8435777Y-21442674D01*
X8435777Y-21442674D02*
X8445301Y-21461722D01*
X8445301Y-21461722D02*
X8445301Y-21566484D01*
X8445301Y-21461722D02*
X8454825Y-21442674D01*
X8454825Y-21442674D02*
X8473872Y-21433150D01*
X8473872Y-21433150D02*
X8502444Y-21433150D01*
X8502444Y-21433150D02*
X8521491Y-21442674D01*
X8521491Y-21442674D02*
X8531015Y-21461722D01*
X8531015Y-21461722D02*
X8531015Y-21566484D01*
X8921491Y-21356960D02*
X8750063Y-21614103D01*
X9178634Y-21366484D02*
X9197682Y-21366484D01*
X9197682Y-21366484D02*
X9216729Y-21376008D01*
X9216729Y-21376008D02*
X9226253Y-21385531D01*
X9226253Y-21385531D02*
X9235777Y-21404579D01*
X9235777Y-21404579D02*
X9245301Y-21442674D01*
X9245301Y-21442674D02*
X9245301Y-21490293D01*
X9245301Y-21490293D02*
X9235777Y-21528389D01*
X9235777Y-21528389D02*
X9226253Y-21547436D01*
X9226253Y-21547436D02*
X9216729Y-21556960D01*
X9216729Y-21556960D02*
X9197682Y-21566484D01*
X9197682Y-21566484D02*
X9178634Y-21566484D01*
X9178634Y-21566484D02*
X9159587Y-21556960D01*
X9159587Y-21556960D02*
X9150063Y-21547436D01*
X9150063Y-21547436D02*
X9140539Y-21528389D01*
X9140539Y-21528389D02*
X9131015Y-21490293D01*
X9131015Y-21490293D02*
X9131015Y-21442674D01*
X9131015Y-21442674D02*
X9140539Y-21404579D01*
X9140539Y-21404579D02*
X9150063Y-21385531D01*
X9150063Y-21385531D02*
X9159587Y-21376008D01*
X9159587Y-21376008D02*
X9178634Y-21366484D01*
X9331015Y-21547436D02*
X9340539Y-21556960D01*
X9340539Y-21556960D02*
X9331015Y-21566484D01*
X9331015Y-21566484D02*
X9321491Y-21556960D01*
X9321491Y-21556960D02*
X9331015Y-21547436D01*
X9331015Y-21547436D02*
X9331015Y-21566484D01*
X9531015Y-21566484D02*
X9416729Y-21566484D01*
X9473872Y-21566484D02*
X9473872Y-21366484D01*
X9473872Y-21366484D02*
X9454825Y-21395055D01*
X9454825Y-21395055D02*
X9435777Y-21414103D01*
X9435777Y-21414103D02*
X9416729Y-21423627D01*
X9597682Y-21366484D02*
X9731015Y-21366484D01*
X9731015Y-21366484D02*
X9645301Y-21566484D01*
X9788158Y-21366484D02*
X9921491Y-21366484D01*
X9921491Y-21366484D02*
X9835777Y-21566484D01*
X9988158Y-21385531D02*
X9997682Y-21376008D01*
X9997682Y-21376008D02*
X10016729Y-21366484D01*
X10016729Y-21366484D02*
X10064349Y-21366484D01*
X10064349Y-21366484D02*
X10083396Y-21376008D01*
X10083396Y-21376008D02*
X10092920Y-21385531D01*
X10092920Y-21385531D02*
X10102444Y-21404579D01*
X10102444Y-21404579D02*
X10102444Y-21423627D01*
X10102444Y-21423627D02*
X10092920Y-21452198D01*
X10092920Y-21452198D02*
X9978634Y-21566484D01*
X9978634Y-21566484D02*
X10102444Y-21566484D01*
X10178634Y-21366484D02*
X10178634Y-21404579D01*
X10254825Y-21366484D02*
X10254825Y-21404579D01*
X10550063Y-21642674D02*
X10540539Y-21633150D01*
X10540539Y-21633150D02*
X10521491Y-21604579D01*
X10521491Y-21604579D02*
X10511968Y-21585531D01*
X10511968Y-21585531D02*
X10502444Y-21556960D01*
X10502444Y-21556960D02*
X10492920Y-21509341D01*
X10492920Y-21509341D02*
X10492920Y-21471246D01*
X10492920Y-21471246D02*
X10502444Y-21423627D01*
X10502444Y-21423627D02*
X10511968Y-21395055D01*
X10511968Y-21395055D02*
X10521491Y-21376008D01*
X10521491Y-21376008D02*
X10540539Y-21347436D01*
X10540539Y-21347436D02*
X10550063Y-21337912D01*
X10711968Y-21433150D02*
X10711968Y-21566484D01*
X10664349Y-21356960D02*
X10616730Y-21499817D01*
X10616730Y-21499817D02*
X10740539Y-21499817D01*
X10969111Y-21566484D02*
X10969111Y-21366484D01*
X11054825Y-21566484D02*
X11054825Y-21461722D01*
X11054825Y-21461722D02*
X11045301Y-21442674D01*
X11045301Y-21442674D02*
X11026253Y-21433150D01*
X11026253Y-21433150D02*
X10997682Y-21433150D01*
X10997682Y-21433150D02*
X10978634Y-21442674D01*
X10978634Y-21442674D02*
X10969111Y-21452198D01*
X11178634Y-21566484D02*
X11159587Y-21556960D01*
X11159587Y-21556960D02*
X11150063Y-21547436D01*
X11150063Y-21547436D02*
X11140539Y-21528389D01*
X11140539Y-21528389D02*
X11140539Y-21471246D01*
X11140539Y-21471246D02*
X11150063Y-21452198D01*
X11150063Y-21452198D02*
X11159587Y-21442674D01*
X11159587Y-21442674D02*
X11178634Y-21433150D01*
X11178634Y-21433150D02*
X11207206Y-21433150D01*
X11207206Y-21433150D02*
X11226253Y-21442674D01*
X11226253Y-21442674D02*
X11235777Y-21452198D01*
X11235777Y-21452198D02*
X11245301Y-21471246D01*
X11245301Y-21471246D02*
X11245301Y-21528389D01*
X11245301Y-21528389D02*
X11235777Y-21547436D01*
X11235777Y-21547436D02*
X11226253Y-21556960D01*
X11226253Y-21556960D02*
X11207206Y-21566484D01*
X11207206Y-21566484D02*
X11178634Y-21566484D01*
X11359587Y-21566484D02*
X11340539Y-21556960D01*
X11340539Y-21556960D02*
X11331015Y-21537912D01*
X11331015Y-21537912D02*
X11331015Y-21366484D01*
X11511968Y-21556960D02*
X11492920Y-21566484D01*
X11492920Y-21566484D02*
X11454825Y-21566484D01*
X11454825Y-21566484D02*
X11435777Y-21556960D01*
X11435777Y-21556960D02*
X11426253Y-21537912D01*
X11426253Y-21537912D02*
X11426253Y-21461722D01*
X11426253Y-21461722D02*
X11435777Y-21442674D01*
X11435777Y-21442674D02*
X11454825Y-21433150D01*
X11454825Y-21433150D02*
X11492920Y-21433150D01*
X11492920Y-21433150D02*
X11511968Y-21442674D01*
X11511968Y-21442674D02*
X11521491Y-21461722D01*
X11521491Y-21461722D02*
X11521491Y-21480770D01*
X11521491Y-21480770D02*
X11426253Y-21499817D01*
X11597682Y-21556960D02*
X11616730Y-21566484D01*
X11616730Y-21566484D02*
X11654825Y-21566484D01*
X11654825Y-21566484D02*
X11673872Y-21556960D01*
X11673872Y-21556960D02*
X11683396Y-21537912D01*
X11683396Y-21537912D02*
X11683396Y-21528389D01*
X11683396Y-21528389D02*
X11673872Y-21509341D01*
X11673872Y-21509341D02*
X11654825Y-21499817D01*
X11654825Y-21499817D02*
X11626253Y-21499817D01*
X11626253Y-21499817D02*
X11607206Y-21490293D01*
X11607206Y-21490293D02*
X11597682Y-21471246D01*
X11597682Y-21471246D02*
X11597682Y-21461722D01*
X11597682Y-21461722D02*
X11607206Y-21442674D01*
X11607206Y-21442674D02*
X11626253Y-21433150D01*
X11626253Y-21433150D02*
X11654825Y-21433150D01*
X11654825Y-21433150D02*
X11673872Y-21442674D01*
X11750063Y-21642674D02*
X11759587Y-21633150D01*
X11759587Y-21633150D02*
X11778634Y-21604579D01*
X11778634Y-21604579D02*
X11788158Y-21585531D01*
X11788158Y-21585531D02*
X11797682Y-21556960D01*
X11797682Y-21556960D02*
X11807206Y-21509341D01*
X11807206Y-21509341D02*
X11807206Y-21471246D01*
X11807206Y-21471246D02*
X11797682Y-21423627D01*
X11797682Y-21423627D02*
X11788158Y-21395055D01*
X11788158Y-21395055D02*
X11778634Y-21376008D01*
X11778634Y-21376008D02*
X11759587Y-21347436D01*
X11759587Y-21347436D02*
X11750063Y-21337912D01*
X12111968Y-21642674D02*
X12102444Y-21633150D01*
X12102444Y-21633150D02*
X12083396Y-21604579D01*
X12083396Y-21604579D02*
X12073872Y-21585531D01*
X12073872Y-21585531D02*
X12064349Y-21556960D01*
X12064349Y-21556960D02*
X12054825Y-21509341D01*
X12054825Y-21509341D02*
X12054825Y-21471246D01*
X12054825Y-21471246D02*
X12064349Y-21423627D01*
X12064349Y-21423627D02*
X12073872Y-21395055D01*
X12073872Y-21395055D02*
X12083396Y-21376008D01*
X12083396Y-21376008D02*
X12102444Y-21347436D01*
X12102444Y-21347436D02*
X12111968Y-21337912D01*
X12188158Y-21433150D02*
X12188158Y-21566484D01*
X12188158Y-21452198D02*
X12197682Y-21442674D01*
X12197682Y-21442674D02*
X12216730Y-21433150D01*
X12216730Y-21433150D02*
X12245301Y-21433150D01*
X12245301Y-21433150D02*
X12264349Y-21442674D01*
X12264349Y-21442674D02*
X12273872Y-21461722D01*
X12273872Y-21461722D02*
X12273872Y-21566484D01*
X12397682Y-21566484D02*
X12378634Y-21556960D01*
X12378634Y-21556960D02*
X12369111Y-21547436D01*
X12369111Y-21547436D02*
X12359587Y-21528389D01*
X12359587Y-21528389D02*
X12359587Y-21471246D01*
X12359587Y-21471246D02*
X12369111Y-21452198D01*
X12369111Y-21452198D02*
X12378634Y-21442674D01*
X12378634Y-21442674D02*
X12397682Y-21433150D01*
X12397682Y-21433150D02*
X12426253Y-21433150D01*
X12426253Y-21433150D02*
X12445301Y-21442674D01*
X12445301Y-21442674D02*
X12454825Y-21452198D01*
X12454825Y-21452198D02*
X12464349Y-21471246D01*
X12464349Y-21471246D02*
X12464349Y-21528389D01*
X12464349Y-21528389D02*
X12454825Y-21547436D01*
X12454825Y-21547436D02*
X12445301Y-21556960D01*
X12445301Y-21556960D02*
X12426253Y-21566484D01*
X12426253Y-21566484D02*
X12397682Y-21566484D01*
X12521492Y-21433150D02*
X12597682Y-21433150D01*
X12550063Y-21366484D02*
X12550063Y-21537912D01*
X12550063Y-21537912D02*
X12559587Y-21556960D01*
X12559587Y-21556960D02*
X12578634Y-21566484D01*
X12578634Y-21566484D02*
X12597682Y-21566484D01*
X12816730Y-21433150D02*
X12816730Y-21633150D01*
X12816730Y-21442674D02*
X12835777Y-21433150D01*
X12835777Y-21433150D02*
X12873873Y-21433150D01*
X12873873Y-21433150D02*
X12892920Y-21442674D01*
X12892920Y-21442674D02*
X12902444Y-21452198D01*
X12902444Y-21452198D02*
X12911968Y-21471246D01*
X12911968Y-21471246D02*
X12911968Y-21528389D01*
X12911968Y-21528389D02*
X12902444Y-21547436D01*
X12902444Y-21547436D02*
X12892920Y-21556960D01*
X12892920Y-21556960D02*
X12873873Y-21566484D01*
X12873873Y-21566484D02*
X12835777Y-21566484D01*
X12835777Y-21566484D02*
X12816730Y-21556960D01*
X13026253Y-21566484D02*
X13007206Y-21556960D01*
X13007206Y-21556960D02*
X12997682Y-21537912D01*
X12997682Y-21537912D02*
X12997682Y-21366484D01*
X13188158Y-21566484D02*
X13188158Y-21461722D01*
X13188158Y-21461722D02*
X13178634Y-21442674D01*
X13178634Y-21442674D02*
X13159587Y-21433150D01*
X13159587Y-21433150D02*
X13121492Y-21433150D01*
X13121492Y-21433150D02*
X13102444Y-21442674D01*
X13188158Y-21556960D02*
X13169111Y-21566484D01*
X13169111Y-21566484D02*
X13121492Y-21566484D01*
X13121492Y-21566484D02*
X13102444Y-21556960D01*
X13102444Y-21556960D02*
X13092920Y-21537912D01*
X13092920Y-21537912D02*
X13092920Y-21518865D01*
X13092920Y-21518865D02*
X13102444Y-21499817D01*
X13102444Y-21499817D02*
X13121492Y-21490293D01*
X13121492Y-21490293D02*
X13169111Y-21490293D01*
X13169111Y-21490293D02*
X13188158Y-21480770D01*
X13254825Y-21433150D02*
X13331015Y-21433150D01*
X13283396Y-21366484D02*
X13283396Y-21537912D01*
X13283396Y-21537912D02*
X13292920Y-21556960D01*
X13292920Y-21556960D02*
X13311968Y-21566484D01*
X13311968Y-21566484D02*
X13331015Y-21566484D01*
X13473873Y-21556960D02*
X13454825Y-21566484D01*
X13454825Y-21566484D02*
X13416730Y-21566484D01*
X13416730Y-21566484D02*
X13397682Y-21556960D01*
X13397682Y-21556960D02*
X13388158Y-21537912D01*
X13388158Y-21537912D02*
X13388158Y-21461722D01*
X13388158Y-21461722D02*
X13397682Y-21442674D01*
X13397682Y-21442674D02*
X13416730Y-21433150D01*
X13416730Y-21433150D02*
X13454825Y-21433150D01*
X13454825Y-21433150D02*
X13473873Y-21442674D01*
X13473873Y-21442674D02*
X13483396Y-21461722D01*
X13483396Y-21461722D02*
X13483396Y-21480770D01*
X13483396Y-21480770D02*
X13388158Y-21499817D01*
X13654825Y-21566484D02*
X13654825Y-21366484D01*
X13654825Y-21556960D02*
X13635777Y-21566484D01*
X13635777Y-21566484D02*
X13597682Y-21566484D01*
X13597682Y-21566484D02*
X13578634Y-21556960D01*
X13578634Y-21556960D02*
X13569111Y-21547436D01*
X13569111Y-21547436D02*
X13559587Y-21528389D01*
X13559587Y-21528389D02*
X13559587Y-21471246D01*
X13559587Y-21471246D02*
X13569111Y-21452198D01*
X13569111Y-21452198D02*
X13578634Y-21442674D01*
X13578634Y-21442674D02*
X13597682Y-21433150D01*
X13597682Y-21433150D02*
X13635777Y-21433150D01*
X13635777Y-21433150D02*
X13654825Y-21442674D01*
X13731015Y-21642674D02*
X13740539Y-21633150D01*
X13740539Y-21633150D02*
X13759587Y-21604579D01*
X13759587Y-21604579D02*
X13769111Y-21585531D01*
X13769111Y-21585531D02*
X13778634Y-21556960D01*
X13778634Y-21556960D02*
X13788158Y-21509341D01*
X13788158Y-21509341D02*
X13788158Y-21471246D01*
X13788158Y-21471246D02*
X13778634Y-21423627D01*
X13778634Y-21423627D02*
X13769111Y-21395055D01*
X13769111Y-21395055D02*
X13759587Y-21376008D01*
X13759587Y-21376008D02*
X13740539Y-21347436D01*
X13740539Y-21347436D02*
X13731015Y-21337912D01*
M02*
